<?xml version="1.0" encoding="utf-8" standalone="no"?>
<!DOCTYPE svg PUBLIC "-//W3C//DTD SVG 1.1//EN"
  "http://www.w3.org/Graphics/SVG/1.1/DTD/svg11.dtd">
<!-- Created with matplotlib (https://matplotlib.org/) -->
<svg height="595.44pt" version="1.1" viewBox="0 0 842.4 595.44" width="842.4pt" xmlns="http://www.w3.org/2000/svg" xmlns:xlink="http://www.w3.org/1999/xlink">
 <defs>
  <style type="text/css">
*{stroke-linecap:butt;stroke-linejoin:round;}
  </style>
 </defs>
 <g id="figure_1">
  <g id="patch_1">
   <path d="M 0 595.44 
L 842.4 595.44 
L 842.4 0 
L 0 0 
z
" style="fill:#ffffff;"/>
  </g>
  <g id="axes_1">
   <g id="patch_2">
    <path d="M 105.3 521.01 
L 758.16 521.01 
L 758.16 71.4528 
L 105.3 71.4528 
z
" style="fill:#ffffff;"/>
   </g>
   <g id="matplotlib.axis_1">
    <g id="xtick_1">
     <g id="text_1">
      <!-- 20 -->
      <defs>
       <path d="M 50.34375 8.453125 
L 50.34375 0 
L 3.03125 0 
Q 2.9375 3.171875 4.046875 6.109375 
Q 5.859375 10.9375 9.828125 15.625 
Q 13.8125 20.3125 21.34375 26.46875 
Q 33.015625 36.03125 37.109375 41.625 
Q 41.21875 47.21875 41.21875 52.203125 
Q 41.21875 57.421875 37.46875 61 
Q 33.734375 64.59375 27.734375 64.59375 
Q 21.390625 64.59375 17.578125 60.78125 
Q 13.765625 56.984375 13.71875 50.25 
L 4.6875 51.171875 
Q 5.609375 61.28125 11.65625 66.578125 
Q 17.71875 71.875 27.9375 71.875 
Q 38.234375 71.875 44.234375 66.15625 
Q 50.25 60.453125 50.25 52 
Q 50.25 47.703125 48.484375 43.546875 
Q 46.734375 39.40625 42.65625 34.8125 
Q 38.578125 30.21875 29.109375 22.21875 
Q 21.1875 15.578125 18.9375 13.203125 
Q 16.703125 10.84375 15.234375 8.453125 
z
" id="ArialMT-50"/>
       <path d="M 4.15625 35.296875 
Q 4.15625 48 6.765625 55.734375 
Q 9.375 63.484375 14.515625 67.671875 
Q 19.671875 71.875 27.484375 71.875 
Q 33.25 71.875 37.59375 69.546875 
Q 41.9375 67.234375 44.765625 62.859375 
Q 47.609375 58.5 49.21875 52.21875 
Q 50.828125 45.953125 50.828125 35.296875 
Q 50.828125 22.703125 48.234375 14.96875 
Q 45.65625 7.234375 40.5 3 
Q 35.359375 -1.21875 27.484375 -1.21875 
Q 17.140625 -1.21875 11.234375 6.203125 
Q 4.15625 15.140625 4.15625 35.296875 
z
M 13.1875 35.296875 
Q 13.1875 17.671875 17.3125 11.828125 
Q 21.4375 6 27.484375 6 
Q 33.546875 6 37.671875 11.859375 
Q 41.796875 17.71875 41.796875 35.296875 
Q 41.796875 52.984375 37.671875 58.78125 
Q 33.546875 64.59375 27.390625 64.59375 
Q 21.34375 64.59375 17.71875 59.46875 
Q 13.1875 52.9375 13.1875 35.296875 
z
" id="ArialMT-48"/>
      </defs>
      <g style="fill:#262626;" transform="translate(143.054913 540.530937)scale(0.14 -0.14)">
       <use xlink:href="#ArialMT-50"/>
       <use x="55.615234" xlink:href="#ArialMT-48"/>
      </g>
     </g>
    </g>
    <g id="xtick_2">
     <g id="text_2">
      <!-- 30 -->
      <defs>
       <path d="M 4.203125 18.890625 
L 12.984375 20.0625 
Q 14.5 12.59375 18.140625 9.296875 
Q 21.78125 6 27 6 
Q 33.203125 6 37.46875 10.296875 
Q 41.75 14.59375 41.75 20.953125 
Q 41.75 27 37.796875 30.921875 
Q 33.84375 34.859375 27.734375 34.859375 
Q 25.25 34.859375 21.53125 33.890625 
L 22.515625 41.609375 
Q 23.390625 41.5 23.921875 41.5 
Q 29.546875 41.5 34.03125 44.421875 
Q 38.53125 47.359375 38.53125 53.46875 
Q 38.53125 58.296875 35.25 61.46875 
Q 31.984375 64.65625 26.8125 64.65625 
Q 21.6875 64.65625 18.265625 61.421875 
Q 14.84375 58.203125 13.875 51.765625 
L 5.078125 53.328125 
Q 6.6875 62.15625 12.390625 67.015625 
Q 18.109375 71.875 26.609375 71.875 
Q 32.46875 71.875 37.390625 69.359375 
Q 42.328125 66.84375 44.9375 62.5 
Q 47.5625 58.15625 47.5625 53.265625 
Q 47.5625 48.640625 45.0625 44.828125 
Q 42.578125 41.015625 37.703125 38.765625 
Q 44.046875 37.3125 47.5625 32.6875 
Q 51.078125 28.078125 51.078125 21.140625 
Q 51.078125 11.765625 44.234375 5.25 
Q 37.40625 -1.265625 26.953125 -1.265625 
Q 17.53125 -1.265625 11.296875 4.34375 
Q 5.078125 9.96875 4.203125 18.890625 
z
" id="ArialMT-51"/>
      </defs>
      <g style="fill:#262626;" transform="translate(222.178793 540.530937)scale(0.14 -0.14)">
       <use xlink:href="#ArialMT-51"/>
       <use x="55.615234" xlink:href="#ArialMT-48"/>
      </g>
     </g>
    </g>
    <g id="xtick_3">
     <g id="text_3">
      <!-- 40 -->
      <defs>
       <path d="M 32.328125 0 
L 32.328125 17.140625 
L 1.265625 17.140625 
L 1.265625 25.203125 
L 33.9375 71.578125 
L 41.109375 71.578125 
L 41.109375 25.203125 
L 50.78125 25.203125 
L 50.78125 17.140625 
L 41.109375 17.140625 
L 41.109375 0 
z
M 32.328125 25.203125 
L 32.328125 57.46875 
L 9.90625 25.203125 
z
" id="ArialMT-52"/>
      </defs>
      <g style="fill:#262626;" transform="translate(301.302673 540.530937)scale(0.14 -0.14)">
       <use xlink:href="#ArialMT-52"/>
       <use x="55.615234" xlink:href="#ArialMT-48"/>
      </g>
     </g>
    </g>
    <g id="xtick_4">
     <g id="text_4">
      <!-- 50 -->
      <defs>
       <path d="M 4.15625 18.75 
L 13.375 19.53125 
Q 14.40625 12.796875 18.140625 9.390625 
Q 21.875 6 27.15625 6 
Q 33.5 6 37.890625 10.78125 
Q 42.28125 15.578125 42.28125 23.484375 
Q 42.28125 31 38.0625 35.34375 
Q 33.84375 39.703125 27 39.703125 
Q 22.75 39.703125 19.328125 37.765625 
Q 15.921875 35.84375 13.96875 32.765625 
L 5.71875 33.84375 
L 12.640625 70.609375 
L 48.25 70.609375 
L 48.25 62.203125 
L 19.671875 62.203125 
L 15.828125 42.96875 
Q 22.265625 47.46875 29.34375 47.46875 
Q 38.71875 47.46875 45.15625 40.96875 
Q 51.609375 34.46875 51.609375 24.265625 
Q 51.609375 14.546875 45.953125 7.46875 
Q 39.0625 -1.21875 27.15625 -1.21875 
Q 17.390625 -1.21875 11.203125 4.25 
Q 5.03125 9.71875 4.15625 18.75 
z
" id="ArialMT-53"/>
      </defs>
      <g style="fill:#262626;" transform="translate(380.426553 540.530937)scale(0.14 -0.14)">
       <use xlink:href="#ArialMT-53"/>
       <use x="55.615234" xlink:href="#ArialMT-48"/>
      </g>
     </g>
    </g>
    <g id="xtick_5">
     <g id="text_5">
      <!-- 60 -->
      <defs>
       <path d="M 49.75 54.046875 
L 41.015625 53.375 
Q 39.84375 58.546875 37.703125 60.890625 
Q 34.125 64.65625 28.90625 64.65625 
Q 24.703125 64.65625 21.53125 62.3125 
Q 17.390625 59.28125 14.984375 53.46875 
Q 12.59375 47.65625 12.5 36.921875 
Q 15.671875 41.75 20.265625 44.09375 
Q 24.859375 46.4375 29.890625 46.4375 
Q 38.671875 46.4375 44.84375 39.96875 
Q 51.03125 33.5 51.03125 23.25 
Q 51.03125 16.5 48.125 10.71875 
Q 45.21875 4.9375 40.140625 1.859375 
Q 35.0625 -1.21875 28.609375 -1.21875 
Q 17.625 -1.21875 10.6875 6.859375 
Q 3.765625 14.9375 3.765625 33.5 
Q 3.765625 54.25 11.421875 63.671875 
Q 18.109375 71.875 29.4375 71.875 
Q 37.890625 71.875 43.28125 67.140625 
Q 48.6875 62.40625 49.75 54.046875 
z
M 13.875 23.1875 
Q 13.875 18.65625 15.796875 14.5 
Q 17.71875 10.359375 21.1875 8.171875 
Q 24.65625 6 28.46875 6 
Q 34.03125 6 38.03125 10.484375 
Q 42.046875 14.984375 42.046875 22.703125 
Q 42.046875 30.125 38.078125 34.390625 
Q 34.125 38.671875 28.125 38.671875 
Q 22.171875 38.671875 18.015625 34.390625 
Q 13.875 30.125 13.875 23.1875 
z
" id="ArialMT-54"/>
      </defs>
      <g style="fill:#262626;" transform="translate(459.550434 540.530937)scale(0.14 -0.14)">
       <use xlink:href="#ArialMT-54"/>
       <use x="55.615234" xlink:href="#ArialMT-48"/>
      </g>
     </g>
    </g>
    <g id="xtick_6">
     <g id="text_6">
      <!-- 70 -->
      <defs>
       <path d="M 4.734375 62.203125 
L 4.734375 70.65625 
L 51.078125 70.65625 
L 51.078125 63.8125 
Q 44.234375 56.546875 37.515625 44.484375 
Q 30.8125 32.421875 27.15625 19.671875 
Q 24.515625 10.6875 23.78125 0 
L 14.75 0 
Q 14.890625 8.453125 18.0625 20.40625 
Q 21.234375 32.375 27.171875 43.484375 
Q 33.109375 54.59375 39.796875 62.203125 
z
" id="ArialMT-55"/>
      </defs>
      <g style="fill:#262626;" transform="translate(538.674314 540.530937)scale(0.14 -0.14)">
       <use xlink:href="#ArialMT-55"/>
       <use x="55.615234" xlink:href="#ArialMT-48"/>
      </g>
     </g>
    </g>
    <g id="xtick_7">
     <g id="text_7">
      <!-- 80 -->
      <defs>
       <path d="M 17.671875 38.8125 
Q 12.203125 40.828125 9.5625 44.53125 
Q 6.9375 48.25 6.9375 53.421875 
Q 6.9375 61.234375 12.546875 66.546875 
Q 18.171875 71.875 27.484375 71.875 
Q 36.859375 71.875 42.578125 66.421875 
Q 48.296875 60.984375 48.296875 53.171875 
Q 48.296875 48.1875 45.671875 44.5 
Q 43.0625 40.828125 37.75 38.8125 
Q 44.34375 36.671875 47.78125 31.875 
Q 51.21875 27.09375 51.21875 20.453125 
Q 51.21875 11.28125 44.71875 5.03125 
Q 38.234375 -1.21875 27.640625 -1.21875 
Q 17.046875 -1.21875 10.546875 5.046875 
Q 4.046875 11.328125 4.046875 20.703125 
Q 4.046875 27.6875 7.59375 32.390625 
Q 11.140625 37.109375 17.671875 38.8125 
z
M 15.921875 53.71875 
Q 15.921875 48.640625 19.1875 45.40625 
Q 22.46875 42.1875 27.6875 42.1875 
Q 32.765625 42.1875 36.015625 45.375 
Q 39.265625 48.578125 39.265625 53.21875 
Q 39.265625 58.0625 35.90625 61.359375 
Q 32.5625 64.65625 27.59375 64.65625 
Q 22.5625 64.65625 19.234375 61.421875 
Q 15.921875 58.203125 15.921875 53.71875 
z
M 13.09375 20.65625 
Q 13.09375 16.890625 14.875 13.375 
Q 16.65625 9.859375 20.171875 7.921875 
Q 23.6875 6 27.734375 6 
Q 34.03125 6 38.125 10.046875 
Q 42.234375 14.109375 42.234375 20.359375 
Q 42.234375 26.703125 38.015625 30.859375 
Q 33.796875 35.015625 27.4375 35.015625 
Q 21.234375 35.015625 17.15625 30.90625 
Q 13.09375 26.8125 13.09375 20.65625 
z
" id="ArialMT-56"/>
      </defs>
      <g style="fill:#262626;" transform="translate(617.798194 540.530937)scale(0.14 -0.14)">
       <use xlink:href="#ArialMT-56"/>
       <use x="55.615234" xlink:href="#ArialMT-48"/>
      </g>
     </g>
    </g>
    <g id="xtick_8">
     <g id="text_8">
      <!-- 90 -->
      <defs>
       <path d="M 5.46875 16.546875 
L 13.921875 17.328125 
Q 14.984375 11.375 18.015625 8.6875 
Q 21.046875 6 25.78125 6 
Q 29.828125 6 32.875 7.859375 
Q 35.9375 9.71875 37.890625 12.8125 
Q 39.84375 15.921875 41.15625 21.1875 
Q 42.484375 26.46875 42.484375 31.9375 
Q 42.484375 32.515625 42.4375 33.6875 
Q 39.796875 29.5 35.234375 26.875 
Q 30.671875 24.265625 25.34375 24.265625 
Q 16.453125 24.265625 10.296875 30.703125 
Q 4.15625 37.15625 4.15625 47.703125 
Q 4.15625 58.59375 10.578125 65.234375 
Q 17 71.875 26.65625 71.875 
Q 33.640625 71.875 39.421875 68.109375 
Q 45.21875 64.359375 48.21875 57.390625 
Q 51.21875 50.4375 51.21875 37.25 
Q 51.21875 23.53125 48.234375 15.40625 
Q 45.265625 7.28125 39.375 3.03125 
Q 33.5 -1.21875 25.59375 -1.21875 
Q 17.1875 -1.21875 11.859375 3.4375 
Q 6.546875 8.109375 5.46875 16.546875 
z
M 41.453125 48.140625 
Q 41.453125 55.71875 37.421875 60.15625 
Q 33.40625 64.59375 27.734375 64.59375 
Q 21.875 64.59375 17.53125 59.8125 
Q 13.1875 55.03125 13.1875 47.40625 
Q 13.1875 40.578125 17.3125 36.296875 
Q 21.4375 32.03125 27.484375 32.03125 
Q 33.59375 32.03125 37.515625 36.296875 
Q 41.453125 40.578125 41.453125 48.140625 
z
" id="ArialMT-57"/>
      </defs>
      <g style="fill:#262626;" transform="translate(696.922074 540.530937)scale(0.14 -0.14)">
       <use xlink:href="#ArialMT-57"/>
       <use x="55.615234" xlink:href="#ArialMT-48"/>
      </g>
     </g>
    </g>
    <g id="text_9">
     <!-- Age -->
     <defs>
      <path d="M 71.828125 0 
L 56.109375 0 
L 49.859375 16.265625 
L 21.234375 16.265625 
L 15.328125 0 
L 0 0 
L 27.875 71.578125 
L 43.171875 71.578125 
z
M 45.21875 28.328125 
L 35.359375 54.890625 
L 25.6875 28.328125 
z
" id="Arial-BoldMT-65"/>
      <path d="M 5.90625 -3.421875 
L 21.578125 -5.328125 
Q 21.96875 -8.0625 23.390625 -9.078125 
Q 25.34375 -10.546875 29.546875 -10.546875 
Q 34.90625 -10.546875 37.59375 -8.9375 
Q 39.40625 -7.859375 40.328125 -5.46875 
Q 40.96875 -3.765625 40.96875 0.828125 
L 40.96875 8.40625 
Q 34.8125 0 25.4375 0 
Q 14.984375 0 8.890625 8.84375 
Q 4.109375 15.828125 4.109375 26.21875 
Q 4.109375 39.265625 10.375 46.140625 
Q 16.65625 53.03125 25.984375 53.03125 
Q 35.59375 53.03125 41.84375 44.578125 
L 41.84375 51.859375 
L 54.6875 51.859375 
L 54.6875 5.328125 
Q 54.6875 -3.859375 53.171875 -8.390625 
Q 51.65625 -12.9375 48.921875 -15.515625 
Q 46.1875 -18.109375 41.625 -19.578125 
Q 37.0625 -21.046875 30.078125 -21.046875 
Q 16.890625 -21.046875 11.375 -16.53125 
Q 5.859375 -12.015625 5.859375 -5.078125 
Q 5.859375 -4.390625 5.90625 -3.421875 
z
M 18.171875 27 
Q 18.171875 18.75 21.359375 14.90625 
Q 24.5625 11.078125 29.25 11.078125 
Q 34.28125 11.078125 37.75 15.015625 
Q 41.21875 18.953125 41.21875 26.65625 
Q 41.21875 34.71875 37.890625 38.625 
Q 34.578125 42.53125 29.5 42.53125 
Q 24.5625 42.53125 21.359375 38.6875 
Q 18.171875 34.859375 18.171875 27 
z
" id="Arial-BoldMT-103"/>
      <path d="M 37.203125 16.5 
L 50.875 14.203125 
Q 48.25 6.6875 42.546875 2.75 
Q 36.859375 -1.171875 28.328125 -1.171875 
Q 14.796875 -1.171875 8.296875 7.671875 
Q 3.171875 14.75 3.171875 25.53125 
Q 3.171875 38.421875 9.90625 45.71875 
Q 16.65625 53.03125 26.953125 53.03125 
Q 38.53125 53.03125 45.21875 45.390625 
Q 51.90625 37.75 51.609375 21.96875 
L 17.234375 21.96875 
Q 17.390625 15.875 20.5625 12.46875 
Q 23.734375 9.078125 28.46875 9.078125 
Q 31.6875 9.078125 33.875 10.828125 
Q 36.078125 12.59375 37.203125 16.5 
z
M 37.984375 30.375 
Q 37.84375 36.328125 34.90625 39.421875 
Q 31.984375 42.53125 27.78125 42.53125 
Q 23.296875 42.53125 20.359375 39.265625 
Q 17.4375 35.984375 17.484375 30.375 
z
" id="Arial-BoldMT-101"/>
     </defs>
     <g style="fill:#262626;" transform="translate(414.728438 560.1975)scale(0.18 -0.18)">
      <use xlink:href="#Arial-BoldMT-65"/>
      <use x="72.216797" xlink:href="#Arial-BoldMT-103"/>
      <use x="133.300781" xlink:href="#Arial-BoldMT-101"/>
     </g>
    </g>
   </g>
   <g id="matplotlib.axis_2">
    <g id="ytick_1">
     <g id="text_10">
      <!-- 1.4 -->
      <defs>
       <path d="M 37.25 0 
L 28.46875 0 
L 28.46875 56 
Q 25.296875 52.984375 20.140625 49.953125 
Q 14.984375 46.921875 10.890625 45.40625 
L 10.890625 53.90625 
Q 18.265625 57.375 23.78125 62.296875 
Q 29.296875 67.234375 31.59375 71.875 
L 37.25 71.875 
z
" id="ArialMT-49"/>
       <path d="M 9.078125 0 
L 9.078125 10.015625 
L 19.09375 10.015625 
L 19.09375 0 
z
" id="ArialMT-46"/>
      </defs>
      <g style="fill:#262626;" transform="translate(76.34 474.724125)scale(0.14 -0.14)">
       <use xlink:href="#ArialMT-49"/>
       <use x="55.615234" xlink:href="#ArialMT-46"/>
       <use x="83.398438" xlink:href="#ArialMT-52"/>
      </g>
     </g>
    </g>
    <g id="ytick_2">
     <g id="text_11">
      <!-- 1.6 -->
      <g style="fill:#262626;" transform="translate(76.34 404.553891)scale(0.14 -0.14)">
       <use xlink:href="#ArialMT-49"/>
       <use x="55.615234" xlink:href="#ArialMT-46"/>
       <use x="83.398438" xlink:href="#ArialMT-54"/>
      </g>
     </g>
    </g>
    <g id="ytick_3">
     <g id="text_12">
      <!-- 1.8 -->
      <g style="fill:#262626;" transform="translate(76.34 334.383656)scale(0.14 -0.14)">
       <use xlink:href="#ArialMT-49"/>
       <use x="55.615234" xlink:href="#ArialMT-46"/>
       <use x="83.398438" xlink:href="#ArialMT-56"/>
      </g>
     </g>
    </g>
    <g id="ytick_4">
     <g id="text_13">
      <!-- 2.0 -->
      <g style="fill:#262626;" transform="translate(76.34 264.213421)scale(0.14 -0.14)">
       <use xlink:href="#ArialMT-50"/>
       <use x="55.615234" xlink:href="#ArialMT-46"/>
       <use x="83.398438" xlink:href="#ArialMT-48"/>
      </g>
     </g>
    </g>
    <g id="ytick_5">
     <g id="text_14">
      <!-- 2.2 -->
      <g style="fill:#262626;" transform="translate(76.34 194.043186)scale(0.14 -0.14)">
       <use xlink:href="#ArialMT-50"/>
       <use x="55.615234" xlink:href="#ArialMT-46"/>
       <use x="83.398438" xlink:href="#ArialMT-50"/>
      </g>
     </g>
    </g>
    <g id="ytick_6">
     <g id="text_15">
      <!-- 2.4 -->
      <g style="fill:#262626;" transform="translate(76.34 123.872951)scale(0.14 -0.14)">
       <use xlink:href="#ArialMT-50"/>
       <use x="55.615234" xlink:href="#ArialMT-46"/>
       <use x="83.398438" xlink:href="#ArialMT-52"/>
      </g>
     </g>
    </g>
    <g id="text_16">
     <!-- Average Basket Size -->
     <defs>
      <path d="M 21.4375 0 
L 0.53125 51.859375 
L 14.9375 51.859375 
L 24.703125 25.390625 
L 27.546875 16.546875 
Q 28.65625 19.921875 28.953125 21 
Q 29.640625 23.1875 30.421875 25.390625 
L 40.28125 51.859375 
L 54.390625 51.859375 
L 33.796875 0 
z
" id="Arial-BoldMT-118"/>
      <path d="M 20.3125 0 
L 6.59375 0 
L 6.59375 51.859375 
L 19.34375 51.859375 
L 19.34375 44.484375 
Q 22.609375 49.703125 25.21875 51.359375 
Q 27.828125 53.03125 31.15625 53.03125 
Q 35.84375 53.03125 40.1875 50.4375 
L 35.9375 38.484375 
Q 32.46875 40.71875 29.5 40.71875 
Q 26.609375 40.71875 24.609375 39.125 
Q 22.609375 37.546875 21.453125 33.390625 
Q 20.3125 29.25 20.3125 16.015625 
z
" id="Arial-BoldMT-114"/>
      <path d="M 17.4375 36.03125 
L 4.984375 38.28125 
Q 7.078125 45.796875 12.203125 49.40625 
Q 17.328125 53.03125 27.4375 53.03125 
Q 36.625 53.03125 41.109375 50.859375 
Q 45.609375 48.6875 47.4375 45.34375 
Q 49.265625 42 49.265625 33.0625 
L 49.125 17.046875 
Q 49.125 10.203125 49.78125 6.953125 
Q 50.4375 3.71875 52.25 0 
L 38.671875 0 
Q 38.140625 1.375 37.359375 4.046875 
Q 37.015625 5.28125 36.859375 5.671875 
Q 33.34375 2.25 29.34375 0.53125 
Q 25.34375 -1.171875 20.796875 -1.171875 
Q 12.796875 -1.171875 8.171875 3.171875 
Q 3.5625 7.515625 3.5625 14.15625 
Q 3.5625 18.5625 5.65625 22 
Q 7.765625 25.4375 11.546875 27.265625 
Q 15.328125 29.109375 22.46875 30.46875 
Q 32.078125 32.28125 35.796875 33.84375 
L 35.796875 35.203125 
Q 35.796875 39.15625 33.84375 40.84375 
Q 31.890625 42.53125 26.46875 42.53125 
Q 22.796875 42.53125 20.75 41.09375 
Q 18.703125 39.65625 17.4375 36.03125 
z
M 35.796875 24.90625 
Q 33.15625 24.03125 27.4375 22.796875 
Q 21.734375 21.578125 19.96875 20.40625 
Q 17.28125 18.5 17.28125 15.578125 
Q 17.28125 12.703125 19.421875 10.59375 
Q 21.578125 8.5 24.90625 8.5 
Q 28.609375 8.5 31.984375 10.9375 
Q 34.46875 12.796875 35.25 15.484375 
Q 35.796875 17.234375 35.796875 22.171875 
z
" id="Arial-BoldMT-97"/>
      <path id="Arial-BoldMT-32"/>
      <path d="M 7.328125 71.578125 
L 35.9375 71.578125 
Q 44.4375 71.578125 48.609375 70.875 
Q 52.78125 70.171875 56.078125 67.921875 
Q 59.375 65.671875 61.5625 61.9375 
Q 63.765625 58.203125 63.765625 53.5625 
Q 63.765625 48.53125 61.046875 44.328125 
Q 58.34375 40.140625 53.71875 38.03125 
Q 60.25 36.140625 63.765625 31.546875 
Q 67.28125 26.953125 67.28125 20.75 
Q 67.28125 15.875 65.015625 11.25 
Q 62.75 6.640625 58.8125 3.875 
Q 54.890625 1.125 49.125 0.484375 
Q 45.515625 0.09375 31.6875 0 
L 7.328125 0 
z
M 21.78125 59.671875 
L 21.78125 43.109375 
L 31.25 43.109375 
Q 39.703125 43.109375 41.75 43.359375 
Q 45.453125 43.796875 47.578125 45.921875 
Q 49.703125 48.046875 49.703125 51.515625 
Q 49.703125 54.828125 47.875 56.90625 
Q 46.046875 58.984375 42.4375 59.421875 
Q 40.28125 59.671875 30.078125 59.671875 
z
M 21.78125 31.203125 
L 21.78125 12.0625 
L 35.15625 12.0625 
Q 42.96875 12.0625 45.0625 12.5 
Q 48.296875 13.09375 50.3125 15.359375 
Q 52.34375 17.625 52.34375 21.4375 
Q 52.34375 24.65625 50.78125 26.90625 
Q 49.21875 29.15625 46.265625 30.171875 
Q 43.3125 31.203125 33.453125 31.203125 
z
" id="Arial-BoldMT-66"/>
      <path d="M 2.34375 14.796875 
L 16.109375 16.890625 
Q 17 12.890625 19.671875 10.8125 
Q 22.359375 8.734375 27.203125 8.734375 
Q 32.515625 8.734375 35.203125 10.6875 
Q 37.015625 12.0625 37.015625 14.359375 
Q 37.015625 15.921875 36.03125 16.9375 
Q 35.015625 17.921875 31.453125 18.75 
Q 14.84375 22.40625 10.40625 25.4375 
Q 4.25 29.640625 4.25 37.109375 
Q 4.25 43.84375 9.5625 48.4375 
Q 14.890625 53.03125 26.078125 53.03125 
Q 36.71875 53.03125 41.890625 49.5625 
Q 47.078125 46.09375 49.03125 39.3125 
L 36.078125 36.921875 
Q 35.25 39.9375 32.921875 41.546875 
Q 30.609375 43.171875 26.3125 43.171875 
Q 20.90625 43.171875 18.5625 41.65625 
Q 17 40.578125 17 38.875 
Q 17 37.40625 18.359375 36.375 
Q 20.21875 35.015625 31.171875 32.515625 
Q 42.140625 30.03125 46.484375 26.421875 
Q 50.78125 22.75 50.78125 16.21875 
Q 50.78125 9.078125 44.828125 3.953125 
Q 38.875 -1.171875 27.203125 -1.171875 
Q 16.609375 -1.171875 10.421875 3.125 
Q 4.25 7.421875 2.34375 14.796875 
z
" id="Arial-BoldMT-115"/>
      <path d="M 6.6875 0 
L 6.6875 71.578125 
L 20.40625 71.578125 
L 20.40625 33.59375 
L 36.46875 51.859375 
L 53.375 51.859375 
L 35.640625 32.90625 
L 54.640625 0 
L 39.84375 0 
L 26.8125 23.296875 
L 20.40625 16.609375 
L 20.40625 0 
z
" id="Arial-BoldMT-107"/>
      <path d="M 30.953125 51.859375 
L 30.953125 40.921875 
L 21.578125 40.921875 
L 21.578125 20.015625 
Q 21.578125 13.671875 21.84375 12.625 
Q 22.125 11.578125 23.078125 10.890625 
Q 24.03125 10.203125 25.390625 10.203125 
Q 27.296875 10.203125 30.90625 11.53125 
L 32.078125 0.875 
Q 27.296875 -1.171875 21.234375 -1.171875 
Q 17.53125 -1.171875 14.546875 0.0625 
Q 11.578125 1.3125 10.1875 3.296875 
Q 8.796875 5.28125 8.25 8.640625 
Q 7.8125 11.03125 7.8125 18.3125 
L 7.8125 40.921875 
L 1.515625 40.921875 
L 1.515625 51.859375 
L 7.8125 51.859375 
L 7.8125 62.15625 
L 21.578125 70.171875 
L 21.578125 51.859375 
z
" id="Arial-BoldMT-116"/>
      <path d="M 3.609375 23.296875 
L 17.671875 24.65625 
Q 18.953125 17.578125 22.828125 14.25 
Q 26.703125 10.9375 33.296875 10.9375 
Q 40.28125 10.9375 43.8125 13.890625 
Q 47.359375 16.84375 47.359375 20.796875 
Q 47.359375 23.34375 45.875 25.125 
Q 44.390625 26.90625 40.671875 28.21875 
Q 38.140625 29.109375 29.109375 31.34375 
Q 17.484375 34.234375 12.796875 38.421875 
Q 6.203125 44.34375 6.203125 52.828125 
Q 6.203125 58.296875 9.296875 63.0625 
Q 12.40625 67.828125 18.234375 70.3125 
Q 24.078125 72.796875 32.328125 72.796875 
Q 45.796875 72.796875 52.609375 66.890625 
Q 59.421875 60.984375 59.765625 51.125 
L 45.3125 50.484375 
Q 44.390625 56 41.328125 58.421875 
Q 38.28125 60.84375 32.171875 60.84375 
Q 25.875 60.84375 22.3125 58.25 
Q 20.015625 56.59375 20.015625 53.8125 
Q 20.015625 51.265625 22.171875 49.46875 
Q 24.90625 47.171875 35.453125 44.671875 
Q 46 42.1875 51.046875 39.515625 
Q 56.109375 36.859375 58.953125 32.25 
Q 61.8125 27.640625 61.8125 20.84375 
Q 61.8125 14.703125 58.390625 9.328125 
Q 54.984375 3.953125 48.734375 1.34375 
Q 42.484375 -1.265625 33.15625 -1.265625 
Q 19.578125 -1.265625 12.296875 5 
Q 5.03125 11.28125 3.609375 23.296875 
z
" id="Arial-BoldMT-83"/>
      <path d="M 7.171875 58.890625 
L 7.171875 71.578125 
L 20.90625 71.578125 
L 20.90625 58.890625 
z
M 7.171875 0 
L 7.171875 51.859375 
L 20.90625 51.859375 
L 20.90625 0 
z
" id="Arial-BoldMT-105"/>
      <path d="M 1.65625 0 
L 1.65625 10.6875 
L 21.09375 33.015625 
Q 25.875 38.484375 28.171875 40.765625 
Q 25.78125 40.625 21.875 40.578125 
L 3.5625 40.484375 
L 3.5625 51.859375 
L 46.4375 51.859375 
L 46.4375 42.140625 
L 26.609375 19.28125 
L 19.625 11.71875 
Q 25.34375 12.0625 26.703125 12.0625 
L 47.953125 12.0625 
L 47.953125 0 
z
" id="Arial-BoldMT-122"/>
     </defs>
     <g style="fill:#262626;" transform="translate(68.551562 384.271088)rotate(-90)scale(0.18 -0.18)">
      <use xlink:href="#Arial-BoldMT-65"/>
      <use x="72.169922" xlink:href="#Arial-BoldMT-118"/>
      <use x="127.785156" xlink:href="#Arial-BoldMT-101"/>
      <use x="183.400391" xlink:href="#Arial-BoldMT-114"/>
      <use x="222.316406" xlink:href="#Arial-BoldMT-97"/>
      <use x="277.931641" xlink:href="#Arial-BoldMT-103"/>
      <use x="339.015625" xlink:href="#Arial-BoldMT-101"/>
      <use x="394.630859" xlink:href="#Arial-BoldMT-32"/>
      <use x="422.414062" xlink:href="#Arial-BoldMT-66"/>
      <use x="494.630859" xlink:href="#Arial-BoldMT-97"/>
      <use x="550.246094" xlink:href="#Arial-BoldMT-115"/>
      <use x="605.861328" xlink:href="#Arial-BoldMT-107"/>
      <use x="661.476562" xlink:href="#Arial-BoldMT-101"/>
      <use x="717.091797" xlink:href="#Arial-BoldMT-116"/>
      <use x="750.392578" xlink:href="#Arial-BoldMT-32"/>
      <use x="778.175781" xlink:href="#Arial-BoldMT-83"/>
      <use x="844.875" xlink:href="#Arial-BoldMT-105"/>
      <use x="872.658203" xlink:href="#Arial-BoldMT-122"/>
      <use x="922.658203" xlink:href="#Arial-BoldMT-101"/>
     </g>
    </g>
   </g>
   <g id="PathCollection_1">
    <defs>
     <path d="M 0 3 
C 0.795609 3 1.55874 2.683901 2.12132 2.12132 
C 2.683901 1.55874 3 0.795609 3 0 
C 3 -0.795609 2.683901 -1.55874 2.12132 -2.12132 
C 1.55874 -2.683901 0.795609 -3 0 -3 
C -0.795609 -3 -1.55874 -2.683901 -2.12132 -2.12132 
C -2.683901 -1.55874 -3 -0.795609 -3 0 
C -3 0.795609 -2.683901 1.55874 -2.12132 2.12132 
C -1.55874 2.683901 -0.795609 3 0 3 
z
" id="me391685a33" style="stroke:#4c72b0;stroke-opacity:0.8;"/>
    </defs>
    <g clip-path="url(#p21a6d3438e)">
     <use style="fill:#4c72b0;fill-opacity:0.8;stroke:#4c72b0;stroke-opacity:0.8;" x="135.015449" xlink:href="#me391685a33" y="344.440827"/>
     <use style="fill:#4c72b0;fill-opacity:0.8;stroke:#4c72b0;stroke-opacity:0.8;" x="142.927837" xlink:href="#me391685a33" y="355.721694"/>
     <use style="fill:#4c72b0;fill-opacity:0.8;stroke:#4c72b0;stroke-opacity:0.8;" x="150.840225" xlink:href="#me391685a33" y="349.390401"/>
     <use style="fill:#4c72b0;fill-opacity:0.8;stroke:#4c72b0;stroke-opacity:0.8;" x="158.752613" xlink:href="#me391685a33" y="353.122192"/>
     <use style="fill:#4c72b0;fill-opacity:0.8;stroke:#4c72b0;stroke-opacity:0.8;" x="166.665001" xlink:href="#me391685a33" y="314.20928"/>
     <use style="fill:#4c72b0;fill-opacity:0.8;stroke:#4c72b0;stroke-opacity:0.8;" x="174.577389" xlink:href="#me391685a33" y="420.909913"/>
     <use style="fill:#4c72b0;fill-opacity:0.8;stroke:#4c72b0;stroke-opacity:0.8;" x="182.489777" xlink:href="#me391685a33" y="350.86444"/>
     <use style="fill:#4c72b0;fill-opacity:0.8;stroke:#4c72b0;stroke-opacity:0.8;" x="190.402165" xlink:href="#me391685a33" y="308.961056"/>
     <use style="fill:#4c72b0;fill-opacity:0.8;stroke:#4c72b0;stroke-opacity:0.8;" x="198.314553" xlink:href="#me391685a33" y="359.533719"/>
     <use style="fill:#4c72b0;fill-opacity:0.8;stroke:#4c72b0;stroke-opacity:0.8;" x="206.226941" xlink:href="#me391685a33" y="333.030709"/>
     <use style="fill:#4c72b0;fill-opacity:0.8;stroke:#4c72b0;stroke-opacity:0.8;" x="214.139329" xlink:href="#me391685a33" y="338.182437"/>
     <use style="fill:#4c72b0;fill-opacity:0.8;stroke:#4c72b0;stroke-opacity:0.8;" x="222.051717" xlink:href="#me391685a33" y="333.415917"/>
     <use style="fill:#4c72b0;fill-opacity:0.8;stroke:#4c72b0;stroke-opacity:0.8;" x="229.964105" xlink:href="#me391685a33" y="352.941816"/>
     <use style="fill:#4c72b0;fill-opacity:0.8;stroke:#4c72b0;stroke-opacity:0.8;" x="237.876493" xlink:href="#me391685a33" y="115.813336"/>
     <use style="fill:#4c72b0;fill-opacity:0.8;stroke:#4c72b0;stroke-opacity:0.8;" x="245.788881" xlink:href="#me391685a33" y="110.79891"/>
     <use style="fill:#4c72b0;fill-opacity:0.8;stroke:#4c72b0;stroke-opacity:0.8;" x="253.701269" xlink:href="#me391685a33" y="114.679737"/>
     <use style="fill:#4c72b0;fill-opacity:0.8;stroke:#4c72b0;stroke-opacity:0.8;" x="261.613658" xlink:href="#me391685a33" y="106.802619"/>
     <use style="fill:#4c72b0;fill-opacity:0.8;stroke:#4c72b0;stroke-opacity:0.8;" x="269.526046" xlink:href="#me391685a33" y="113.377712"/>
     <use style="fill:#4c72b0;fill-opacity:0.8;stroke:#4c72b0;stroke-opacity:0.8;" x="277.438434" xlink:href="#me391685a33" y="111.854076"/>
     <use style="fill:#4c72b0;fill-opacity:0.8;stroke:#4c72b0;stroke-opacity:0.8;" x="285.350822" xlink:href="#me391685a33" y="137.889021"/>
     <use style="fill:#4c72b0;fill-opacity:0.8;stroke:#4c72b0;stroke-opacity:0.8;" x="293.26321" xlink:href="#me391685a33" y="108.017083"/>
     <use style="fill:#4c72b0;fill-opacity:0.8;stroke:#4c72b0;stroke-opacity:0.8;" x="301.175598" xlink:href="#me391685a33" y="121.954516"/>
     <use style="fill:#4c72b0;fill-opacity:0.8;stroke:#4c72b0;stroke-opacity:0.8;" x="309.087986" xlink:href="#me391685a33" y="107.704791"/>
     <use style="fill:#4c72b0;fill-opacity:0.8;stroke:#4c72b0;stroke-opacity:0.8;" x="317.000374" xlink:href="#me391685a33" y="119.93033"/>
     <use style="fill:#4c72b0;fill-opacity:0.8;stroke:#4c72b0;stroke-opacity:0.8;" x="324.912762" xlink:href="#me391685a33" y="131.614393"/>
     <use style="fill:#4c72b0;fill-opacity:0.8;stroke:#4c72b0;stroke-opacity:0.8;" x="332.82515" xlink:href="#me391685a33" y="108.877351"/>
     <use style="fill:#4c72b0;fill-opacity:0.8;stroke:#4c72b0;stroke-opacity:0.8;" x="340.737538" xlink:href="#me391685a33" y="106.63174"/>
     <use style="fill:#4c72b0;fill-opacity:0.8;stroke:#4c72b0;stroke-opacity:0.8;" x="348.649926" xlink:href="#me391685a33" y="107.828677"/>
     <use style="fill:#4c72b0;fill-opacity:0.8;stroke:#4c72b0;stroke-opacity:0.8;" x="356.562314" xlink:href="#me391685a33" y="124.349362"/>
     <use style="fill:#4c72b0;fill-opacity:0.8;stroke:#4c72b0;stroke-opacity:0.8;" x="364.474702" xlink:href="#me391685a33" y="110.877918"/>
     <use style="fill:#4c72b0;fill-opacity:0.8;stroke:#4c72b0;stroke-opacity:0.8;" x="372.38709" xlink:href="#me391685a33" y="103.0233"/>
     <use style="fill:#4c72b0;fill-opacity:0.8;stroke:#4c72b0;stroke-opacity:0.8;" x="380.299478" xlink:href="#me391685a33" y="94.462661"/>
     <use style="fill:#4c72b0;fill-opacity:0.8;stroke:#4c72b0;stroke-opacity:0.8;" x="388.211866" xlink:href="#me391685a33" y="113.356818"/>
     <use style="fill:#4c72b0;fill-opacity:0.8;stroke:#4c72b0;stroke-opacity:0.8;" x="396.124254" xlink:href="#me391685a33" y="465.713866"/>
     <use style="fill:#4c72b0;fill-opacity:0.8;stroke:#4c72b0;stroke-opacity:0.8;" x="404.036642" xlink:href="#me391685a33" y="454.179625"/>
     <use style="fill:#4c72b0;fill-opacity:0.8;stroke:#4c72b0;stroke-opacity:0.8;" x="411.94903" xlink:href="#me391685a33" y="498.000139"/>
     <use style="fill:#4c72b0;fill-opacity:0.8;stroke:#4c72b0;stroke-opacity:0.8;" x="419.861418" xlink:href="#me391685a33" y="238.059531"/>
     <use style="fill:#4c72b0;fill-opacity:0.8;stroke:#4c72b0;stroke-opacity:0.8;" x="427.773806" xlink:href="#me391685a33" y="463.82592"/>
     <use style="fill:#4c72b0;fill-opacity:0.8;stroke:#4c72b0;stroke-opacity:0.8;" x="435.686194" xlink:href="#me391685a33" y="450.630198"/>
     <use style="fill:#4c72b0;fill-opacity:0.8;stroke:#4c72b0;stroke-opacity:0.8;" x="443.598582" xlink:href="#me391685a33" y="452.164857"/>
     <use style="fill:#4c72b0;fill-opacity:0.8;stroke:#4c72b0;stroke-opacity:0.8;" x="451.51097" xlink:href="#me391685a33" y="466.730664"/>
     <use style="fill:#4c72b0;fill-opacity:0.8;stroke:#4c72b0;stroke-opacity:0.8;" x="459.423358" xlink:href="#me391685a33" y="464.237277"/>
     <use style="fill:#4c72b0;fill-opacity:0.8;stroke:#4c72b0;stroke-opacity:0.8;" x="467.335746" xlink:href="#me391685a33" y="454.342083"/>
     <use style="fill:#4c72b0;fill-opacity:0.8;stroke:#4c72b0;stroke-opacity:0.8;" x="475.248134" xlink:href="#me391685a33" y="453.239505"/>
     <use style="fill:#4c72b0;fill-opacity:0.8;stroke:#4c72b0;stroke-opacity:0.8;" x="483.160522" xlink:href="#me391685a33" y="451.585044"/>
     <use style="fill:#4c72b0;fill-opacity:0.8;stroke:#4c72b0;stroke-opacity:0.8;" x="491.07291" xlink:href="#me391685a33" y="444.379468"/>
     <use style="fill:#4c72b0;fill-opacity:0.8;stroke:#4c72b0;stroke-opacity:0.8;" x="498.985298" xlink:href="#me391685a33" y="446.701625"/>
     <use style="fill:#4c72b0;fill-opacity:0.8;stroke:#4c72b0;stroke-opacity:0.8;" x="506.897686" xlink:href="#me391685a33" y="442.087275"/>
     <use style="fill:#4c72b0;fill-opacity:0.8;stroke:#4c72b0;stroke-opacity:0.8;" x="514.810074" xlink:href="#me391685a33" y="437.021543"/>
     <use style="fill:#4c72b0;fill-opacity:0.8;stroke:#4c72b0;stroke-opacity:0.8;" x="522.722462" xlink:href="#me391685a33" y="460.559309"/>
     <use style="fill:#4c72b0;fill-opacity:0.8;stroke:#4c72b0;stroke-opacity:0.8;" x="530.63485" xlink:href="#me391685a33" y="466.079342"/>
     <use style="fill:#4c72b0;fill-opacity:0.8;stroke:#4c72b0;stroke-opacity:0.8;" x="538.547238" xlink:href="#me391685a33" y="412.913512"/>
     <use style="fill:#4c72b0;fill-opacity:0.8;stroke:#4c72b0;stroke-opacity:0.8;" x="546.459626" xlink:href="#me391685a33" y="468.420738"/>
     <use style="fill:#4c72b0;fill-opacity:0.8;stroke:#4c72b0;stroke-opacity:0.8;" x="554.372014" xlink:href="#me391685a33" y="470.793199"/>
     <use style="fill:#4c72b0;fill-opacity:0.8;stroke:#4c72b0;stroke-opacity:0.8;" x="562.284402" xlink:href="#me391685a33" y="474.947516"/>
     <use style="fill:#4c72b0;fill-opacity:0.8;stroke:#4c72b0;stroke-opacity:0.8;" x="570.19679" xlink:href="#me391685a33" y="472.145592"/>
     <use style="fill:#4c72b0;fill-opacity:0.8;stroke:#4c72b0;stroke-opacity:0.8;" x="578.109178" xlink:href="#me391685a33" y="455.550857"/>
     <use style="fill:#4c72b0;fill-opacity:0.8;stroke:#4c72b0;stroke-opacity:0.8;" x="586.021566" xlink:href="#me391685a33" y="447.07007"/>
     <use style="fill:#4c72b0;fill-opacity:0.8;stroke:#4c72b0;stroke-opacity:0.8;" x="593.933954" xlink:href="#me391685a33" y="422.762458"/>
     <use style="fill:#4c72b0;fill-opacity:0.8;stroke:#4c72b0;stroke-opacity:0.8;" x="601.846342" xlink:href="#me391685a33" y="460.82331"/>
     <use style="fill:#4c72b0;fill-opacity:0.8;stroke:#4c72b0;stroke-opacity:0.8;" x="609.758731" xlink:href="#me391685a33" y="462.51671"/>
     <use style="fill:#4c72b0;fill-opacity:0.8;stroke:#4c72b0;stroke-opacity:0.8;" x="617.671119" xlink:href="#me391685a33" y="461.819505"/>
     <use style="fill:#4c72b0;fill-opacity:0.8;stroke:#4c72b0;stroke-opacity:0.8;" x="625.583507" xlink:href="#me391685a33" y="424.637413"/>
     <use style="fill:#4c72b0;fill-opacity:0.8;stroke:#4c72b0;stroke-opacity:0.8;" x="633.495895" xlink:href="#me391685a33" y="447.218892"/>
     <use style="fill:#4c72b0;fill-opacity:0.8;stroke:#4c72b0;stroke-opacity:0.8;" x="641.408283" xlink:href="#me391685a33" y="489.861546"/>
     <use style="fill:#4c72b0;fill-opacity:0.8;stroke:#4c72b0;stroke-opacity:0.8;" x="649.320671" xlink:href="#me391685a33" y="430.77688"/>
     <use style="fill:#4c72b0;fill-opacity:0.8;stroke:#4c72b0;stroke-opacity:0.8;" x="657.233059" xlink:href="#me391685a33" y="418.909401"/>
     <use style="fill:#4c72b0;fill-opacity:0.8;stroke:#4c72b0;stroke-opacity:0.8;" x="665.145447" xlink:href="#me391685a33" y="422.775459"/>
     <use style="fill:#4c72b0;fill-opacity:0.8;stroke:#4c72b0;stroke-opacity:0.8;" x="673.057835" xlink:href="#me391685a33" y="452.368205"/>
     <use style="fill:#4c72b0;fill-opacity:0.8;stroke:#4c72b0;stroke-opacity:0.8;" x="680.970223" xlink:href="#me391685a33" y="479.737976"/>
     <use style="fill:#4c72b0;fill-opacity:0.8;stroke:#4c72b0;stroke-opacity:0.8;" x="688.882611" xlink:href="#me391685a33" y="487.342632"/>
     <use style="fill:#4c72b0;fill-opacity:0.8;stroke:#4c72b0;stroke-opacity:0.8;" x="696.794999" xlink:href="#me391685a33" y="473.281635"/>
     <use style="fill:#4c72b0;fill-opacity:0.8;stroke:#4c72b0;stroke-opacity:0.8;" x="704.707387" xlink:href="#me391685a33" y="419.30009"/>
     <use style="fill:#4c72b0;fill-opacity:0.8;stroke:#4c72b0;stroke-opacity:0.8;" x="712.619775" xlink:href="#me391685a33" y="359.446145"/>
     <use style="fill:#4c72b0;fill-opacity:0.8;stroke:#4c72b0;stroke-opacity:0.8;" x="720.532163" xlink:href="#me391685a33" y="400.518008"/>
     <use style="fill:#4c72b0;fill-opacity:0.8;stroke:#4c72b0;stroke-opacity:0.8;" x="728.444551" xlink:href="#me391685a33" y="489.449035"/>
    </g>
   </g>
   <g id="PolyCollection_1">
    <defs>
     <path d="M 135.015449 -399.372324 
L 135.015449 -399.372324 
L 141.009683 -396.441983 
L 147.003916 -393.58566 
L 152.998149 -390.698675 
L 158.992383 -387.789747 
L 164.986616 -384.848281 
L 170.980849 -381.87971 
L 176.975083 -378.920157 
L 182.969316 -375.942679 
L 188.963549 -373.062459 
L 194.957783 -370.153721 
L 200.952016 -367.21809 
L 206.946249 -364.219946 
L 212.940483 -361.29769 
L 218.934716 -358.30721 
L 224.928949 -355.288709 
L 230.923183 -352.401217 
L 236.917416 -349.553746 
L 242.911649 -346.604445 
L 248.905883 -343.731969 
L 254.900116 -340.918283 
L 260.89435 -338.019231 
L 266.888583 -335.05129 
L 272.882816 -331.983174 
L 278.87705 -329.012653 
L 284.871283 -326.086967 
L 290.865516 -323.175776 
L 296.85975 -320.089997 
L 302.853983 -317.117256 
L 308.848216 -314.077631 
L 314.84245 -311.191312 
L 320.836683 -308.215584 
L 326.830916 -305.246843 
L 332.82515 -302.180664 
L 338.819383 -299.162487 
L 344.813616 -296.250337 
L 350.80785 -293.330278 
L 356.802083 -290.336431 
L 362.796316 -287.464262 
L 368.79055 -284.684944 
L 374.784783 -281.899767 
L 380.779017 -278.877434 
L 386.77325 -275.907181 
L 392.767483 -273.00742 
L 398.761717 -269.87178 
L 404.75595 -266.901024 
L 410.750183 -263.949371 
L 416.744417 -260.919758 
L 422.73865 -258.00866 
L 428.732883 -255.16936 
L 434.727117 -252.324897 
L 440.72135 -249.353972 
L 446.715583 -246.496915 
L 452.709817 -243.536212 
L 458.70405 -240.571379 
L 464.698283 -237.643369 
L 470.692517 -234.630074 
L 476.68675 -231.714002 
L 482.680983 -228.828847 
L 488.675217 -225.929351 
L 494.66945 -222.953042 
L 500.663684 -220.014373 
L 506.657917 -217.031757 
L 512.65215 -214.097824 
L 518.646384 -211.044358 
L 524.640617 -208.098335 
L 530.63485 -205.155906 
L 536.629084 -202.188665 
L 542.623317 -199.304905 
L 548.61755 -196.376659 
L 554.611784 -193.347463 
L 560.606017 -190.270884 
L 566.60025 -187.246342 
L 572.594484 -184.174204 
L 578.588717 -181.162016 
L 584.58295 -178.215473 
L 590.577184 -175.250208 
L 596.571417 -172.305118 
L 602.56565 -169.307865 
L 608.559884 -166.358999 
L 614.554117 -163.421601 
L 620.548351 -160.441594 
L 626.542584 -157.489308 
L 632.536817 -154.575259 
L 638.531051 -151.702858 
L 644.525284 -148.841884 
L 650.519517 -145.947532 
L 656.513751 -142.984255 
L 662.507984 -140.007904 
L 668.502217 -137.213409 
L 674.496451 -134.308158 
L 680.490684 -131.466397 
L 686.484917 -128.613132 
L 692.479151 -125.661487 
L 698.473384 -122.703322 
L 704.467617 -119.824855 
L 710.461851 -116.967381 
L 716.456084 -114.011099 
L 722.450317 -111.115692 
L 728.444551 -108.145444 
L 728.444551 -108.145444 
L 728.444551 -108.145444 
L 722.450317 -111.115692 
L 716.456084 -114.011099 
L 710.461851 -116.967381 
L 704.467617 -119.824855 
L 698.473384 -122.703322 
L 692.479151 -125.661487 
L 686.484917 -128.613132 
L 680.490684 -131.466397 
L 674.496451 -134.308158 
L 668.502217 -137.213409 
L 662.507984 -140.007904 
L 656.513751 -142.984255 
L 650.519517 -145.947532 
L 644.525284 -148.841884 
L 638.531051 -151.702858 
L 632.536817 -154.575259 
L 626.542584 -157.489308 
L 620.548351 -160.441594 
L 614.554117 -163.421601 
L 608.559884 -166.358999 
L 602.56565 -169.307865 
L 596.571417 -172.305118 
L 590.577184 -175.250208 
L 584.58295 -178.215473 
L 578.588717 -181.162016 
L 572.594484 -184.174204 
L 566.60025 -187.246342 
L 560.606017 -190.270884 
L 554.611784 -193.347463 
L 548.61755 -196.376659 
L 542.623317 -199.304905 
L 536.629084 -202.188665 
L 530.63485 -205.155906 
L 524.640617 -208.098335 
L 518.646384 -211.044358 
L 512.65215 -214.097824 
L 506.657917 -217.031757 
L 500.663684 -220.014373 
L 494.66945 -222.953042 
L 488.675217 -225.929351 
L 482.680983 -228.828847 
L 476.68675 -231.714002 
L 470.692517 -234.630074 
L 464.698283 -237.643369 
L 458.70405 -240.571379 
L 452.709817 -243.536212 
L 446.715583 -246.496915 
L 440.72135 -249.353972 
L 434.727117 -252.324897 
L 428.732883 -255.16936 
L 422.73865 -258.00866 
L 416.744417 -260.919758 
L 410.750183 -263.949371 
L 404.75595 -266.901024 
L 398.761717 -269.87178 
L 392.767483 -273.00742 
L 386.77325 -275.907181 
L 380.779017 -278.877434 
L 374.784783 -281.899767 
L 368.79055 -284.684944 
L 362.796316 -287.464262 
L 356.802083 -290.336431 
L 350.80785 -293.330278 
L 344.813616 -296.250337 
L 338.819383 -299.162487 
L 332.82515 -302.180664 
L 326.830916 -305.246843 
L 320.836683 -308.215584 
L 314.84245 -311.191312 
L 308.848216 -314.077631 
L 302.853983 -317.117256 
L 296.85975 -320.089997 
L 290.865516 -323.175776 
L 284.871283 -326.086967 
L 278.87705 -329.012653 
L 272.882816 -331.983174 
L 266.888583 -335.05129 
L 260.89435 -338.019231 
L 254.900116 -340.918283 
L 248.905883 -343.731969 
L 242.911649 -346.604445 
L 236.917416 -349.553746 
L 230.923183 -352.401217 
L 224.928949 -355.288709 
L 218.934716 -358.30721 
L 212.940483 -361.29769 
L 206.946249 -364.219946 
L 200.952016 -367.21809 
L 194.957783 -370.153721 
L 188.963549 -373.062459 
L 182.969316 -375.942679 
L 176.975083 -378.920157 
L 170.980849 -381.87971 
L 164.986616 -384.848281 
L 158.992383 -387.789747 
L 152.998149 -390.698675 
L 147.003916 -393.58566 
L 141.009683 -396.441983 
L 135.015449 -399.372324 
z
" id="m3600b47a3d" style="stroke:#ffffff;stroke-opacity:0.15;"/>
    </defs>
    <g clip-path="url(#p21a6d3438e)">
     <use style="fill:#4c72b0;fill-opacity:0.15;stroke:#ffffff;stroke-opacity:0.15;" x="0" xlink:href="#m3600b47a3d" y="595.44"/>
    </g>
   </g>
   <g id="line2d_1">
    <path clip-path="url(#p21a6d3438e)" d="M 135.015449 197.979944 
L 141.009683 200.891432 
L 147.003916 203.802919 
L 152.998149 206.714407 
L 158.992383 209.625895 
L 164.986616 212.537383 
L 170.980849 215.448871 
L 176.975083 218.360358 
L 182.969316 221.271846 
L 188.963549 224.183334 
L 194.957783 227.094822 
L 200.952016 230.00631 
L 206.946249 232.917797 
L 212.940483 235.829285 
L 218.934716 238.740773 
L 224.928949 241.652261 
L 230.923183 244.563749 
L 236.917416 247.475236 
L 242.911649 250.386724 
L 248.905883 253.298212 
L 254.900116 256.2097 
L 260.89435 259.121187 
L 266.888583 262.032675 
L 272.882816 264.944163 
L 278.87705 267.855651 
L 284.871283 270.767139 
L 290.865516 273.678626 
L 296.85975 276.590114 
L 302.853983 279.501602 
L 308.848216 282.41309 
L 314.84245 285.324578 
L 320.836683 288.236065 
L 326.830916 291.147553 
L 332.82515 294.059041 
L 338.819383 296.970529 
L 344.813616 299.882017 
L 350.80785 302.793504 
L 356.802083 305.704992 
L 362.796316 308.61648 
L 368.79055 311.527968 
L 374.784783 314.439456 
L 380.779017 317.350943 
L 386.77325 320.262431 
L 392.767483 323.173919 
L 398.761717 326.085407 
L 404.75595 328.996895 
L 410.750183 331.908382 
L 416.744417 334.81987 
L 422.73865 337.731358 
L 428.732883 340.642846 
L 434.727117 343.554333 
L 440.72135 346.465821 
L 446.715583 349.377309 
L 452.709817 352.288797 
L 458.70405 355.200285 
L 464.698283 358.111772 
L 470.692517 361.02326 
L 476.68675 363.934748 
L 482.680983 366.846236 
L 488.675217 369.757724 
L 494.66945 372.669211 
L 500.663684 375.580699 
L 506.657917 378.492187 
L 512.65215 381.403675 
L 518.646384 384.315163 
L 524.640617 387.22665 
L 530.63485 390.138138 
L 536.629084 393.049626 
L 542.623317 395.961114 
L 548.61755 398.872602 
L 554.611784 401.784089 
L 560.606017 404.695577 
L 566.60025 407.607065 
L 572.594484 410.518553 
L 578.588717 413.430041 
L 584.58295 416.341528 
L 590.577184 419.253016 
L 596.571417 422.164504 
L 602.56565 425.075992 
L 608.559884 427.987479 
L 614.554117 430.898967 
L 620.548351 433.810455 
L 626.542584 436.721943 
L 632.536817 439.633431 
L 638.531051 442.544918 
L 644.525284 445.456406 
L 650.519517 448.367894 
L 656.513751 451.279382 
L 662.507984 454.19087 
L 668.502217 457.102357 
L 674.496451 460.013845 
L 680.490684 462.925333 
L 686.484917 465.836821 
L 692.479151 468.748309 
L 698.473384 471.659796 
L 704.467617 474.571284 
L 710.461851 477.482772 
L 716.456084 480.39426 
L 722.450317 483.305748 
L 728.444551 486.217235 
" style="fill:none;stroke:#4c72b0;stroke-linecap:round;stroke-width:2.25;"/>
   </g>
   <g id="patch_3">
    <path d="M 105.3 521.01 
L 105.3 71.4528 
" style="fill:none;stroke:#262626;stroke-linecap:square;stroke-linejoin:miter;stroke-width:1.25;"/>
   </g>
   <g id="patch_4">
    <path d="M 758.16 521.01 
L 758.16 71.4528 
" style="fill:none;stroke:#262626;stroke-linecap:square;stroke-linejoin:miter;stroke-width:1.25;"/>
   </g>
   <g id="patch_5">
    <path d="M 105.3 521.01 
L 758.16 521.01 
" style="fill:none;stroke:#262626;stroke-linecap:square;stroke-linejoin:miter;stroke-width:1.25;"/>
   </g>
   <g id="patch_6">
    <path d="M 105.3 71.4528 
L 758.16 71.4528 
" style="fill:none;stroke:#262626;stroke-linecap:square;stroke-linejoin:miter;stroke-width:1.25;"/>
   </g>
   <g id="text_17">
    <!-- pearsonr = -0.58 -->
    <defs>
     <path d="M 6.59375 -19.875 
L 6.59375 51.859375 
L 14.59375 51.859375 
L 14.59375 45.125 
Q 17.4375 49.078125 21 51.046875 
Q 24.5625 53.03125 29.640625 53.03125 
Q 36.28125 53.03125 41.359375 49.609375 
Q 46.4375 46.1875 49.015625 39.953125 
Q 51.609375 33.734375 51.609375 26.3125 
Q 51.609375 18.359375 48.75 11.984375 
Q 45.90625 5.609375 40.453125 2.21875 
Q 35.015625 -1.171875 29 -1.171875 
Q 24.609375 -1.171875 21.109375 0.6875 
Q 17.625 2.546875 15.375 5.375 
L 15.375 -19.875 
z
M 14.546875 25.640625 
Q 14.546875 15.625 18.59375 10.84375 
Q 22.65625 6.0625 28.421875 6.0625 
Q 34.28125 6.0625 38.453125 11.015625 
Q 42.625 15.96875 42.625 26.375 
Q 42.625 36.28125 38.546875 41.203125 
Q 34.46875 46.140625 28.8125 46.140625 
Q 23.1875 46.140625 18.859375 40.890625 
Q 14.546875 35.640625 14.546875 25.640625 
z
" id="ArialMT-112"/>
     <path d="M 42.09375 16.703125 
L 51.171875 15.578125 
Q 49.03125 7.625 43.21875 3.21875 
Q 37.40625 -1.171875 28.375 -1.171875 
Q 17 -1.171875 10.328125 5.828125 
Q 3.65625 12.84375 3.65625 25.484375 
Q 3.65625 38.578125 10.390625 45.796875 
Q 17.140625 53.03125 27.875 53.03125 
Q 38.28125 53.03125 44.875 45.953125 
Q 51.46875 38.875 51.46875 26.03125 
Q 51.46875 25.25 51.421875 23.6875 
L 12.75 23.6875 
Q 13.234375 15.140625 17.578125 10.59375 
Q 21.921875 6.0625 28.421875 6.0625 
Q 33.25 6.0625 36.671875 8.59375 
Q 40.09375 11.140625 42.09375 16.703125 
z
M 13.234375 30.90625 
L 42.1875 30.90625 
Q 41.609375 37.453125 38.875 40.71875 
Q 34.671875 45.796875 27.984375 45.796875 
Q 21.921875 45.796875 17.796875 41.75 
Q 13.671875 37.703125 13.234375 30.90625 
z
" id="ArialMT-101"/>
     <path d="M 40.4375 6.390625 
Q 35.546875 2.25 31.03125 0.53125 
Q 26.515625 -1.171875 21.34375 -1.171875 
Q 12.796875 -1.171875 8.203125 3 
Q 3.609375 7.171875 3.609375 13.671875 
Q 3.609375 17.484375 5.34375 20.625 
Q 7.078125 23.78125 9.890625 25.6875 
Q 12.703125 27.59375 16.21875 28.5625 
Q 18.796875 29.25 24.03125 29.890625 
Q 34.671875 31.15625 39.703125 32.90625 
Q 39.75 34.71875 39.75 35.203125 
Q 39.75 40.578125 37.25 42.78125 
Q 33.890625 45.75 27.25 45.75 
Q 21.046875 45.75 18.09375 43.578125 
Q 15.140625 41.40625 13.71875 35.890625 
L 5.125 37.0625 
Q 6.296875 42.578125 8.984375 45.96875 
Q 11.671875 49.359375 16.75 51.1875 
Q 21.828125 53.03125 28.515625 53.03125 
Q 35.15625 53.03125 39.296875 51.46875 
Q 43.453125 49.90625 45.40625 47.53125 
Q 47.359375 45.171875 48.140625 41.546875 
Q 48.578125 39.3125 48.578125 33.453125 
L 48.578125 21.734375 
Q 48.578125 9.46875 49.140625 6.21875 
Q 49.703125 2.984375 51.375 0 
L 42.1875 0 
Q 40.828125 2.734375 40.4375 6.390625 
z
M 39.703125 26.03125 
Q 34.90625 24.078125 25.34375 22.703125 
Q 19.921875 21.921875 17.671875 20.9375 
Q 15.4375 19.96875 14.203125 18.09375 
Q 12.984375 16.21875 12.984375 13.921875 
Q 12.984375 10.40625 15.640625 8.0625 
Q 18.3125 5.71875 23.4375 5.71875 
Q 28.515625 5.71875 32.46875 7.9375 
Q 36.421875 10.15625 38.28125 14.015625 
Q 39.703125 17 39.703125 22.796875 
z
" id="ArialMT-97"/>
     <path d="M 6.5 0 
L 6.5 51.859375 
L 14.40625 51.859375 
L 14.40625 44 
Q 17.4375 49.515625 20 51.265625 
Q 22.5625 53.03125 25.640625 53.03125 
Q 30.078125 53.03125 34.671875 50.203125 
L 31.640625 42.046875 
Q 28.421875 43.953125 25.203125 43.953125 
Q 22.3125 43.953125 20.015625 42.21875 
Q 17.71875 40.484375 16.75 37.40625 
Q 15.28125 32.71875 15.28125 27.15625 
L 15.28125 0 
z
" id="ArialMT-114"/>
     <path d="M 3.078125 15.484375 
L 11.765625 16.84375 
Q 12.5 11.625 15.84375 8.84375 
Q 19.1875 6.0625 25.203125 6.0625 
Q 31.25 6.0625 34.171875 8.515625 
Q 37.109375 10.984375 37.109375 14.3125 
Q 37.109375 17.28125 34.515625 19 
Q 32.71875 20.171875 25.53125 21.96875 
Q 15.875 24.421875 12.140625 26.203125 
Q 8.40625 27.984375 6.46875 31.125 
Q 4.546875 34.28125 4.546875 38.09375 
Q 4.546875 41.546875 6.125 44.5 
Q 7.71875 47.46875 10.453125 49.421875 
Q 12.5 50.921875 16.03125 51.96875 
Q 19.578125 53.03125 23.640625 53.03125 
Q 29.734375 53.03125 34.34375 51.265625 
Q 38.96875 49.515625 41.15625 46.5 
Q 43.359375 43.5 44.1875 38.484375 
L 35.59375 37.3125 
Q 35.015625 41.3125 32.203125 43.546875 
Q 29.390625 45.796875 24.265625 45.796875 
Q 18.21875 45.796875 15.625 43.796875 
Q 13.03125 41.796875 13.03125 39.109375 
Q 13.03125 37.40625 14.109375 36.03125 
Q 15.1875 34.625 17.484375 33.6875 
Q 18.796875 33.203125 25.25 31.453125 
Q 34.578125 28.953125 38.25 27.359375 
Q 41.9375 25.78125 44.03125 22.75 
Q 46.140625 19.734375 46.140625 15.234375 
Q 46.140625 10.84375 43.578125 6.953125 
Q 41.015625 3.078125 36.171875 0.953125 
Q 31.34375 -1.171875 25.25 -1.171875 
Q 15.140625 -1.171875 9.84375 3.03125 
Q 4.546875 7.234375 3.078125 15.484375 
z
" id="ArialMT-115"/>
     <path d="M 3.328125 25.921875 
Q 3.328125 40.328125 11.328125 47.265625 
Q 18.015625 53.03125 27.640625 53.03125 
Q 38.328125 53.03125 45.109375 46.015625 
Q 51.90625 39.015625 51.90625 26.65625 
Q 51.90625 16.65625 48.90625 10.90625 
Q 45.90625 5.171875 40.15625 2 
Q 34.421875 -1.171875 27.640625 -1.171875 
Q 16.75 -1.171875 10.03125 5.8125 
Q 3.328125 12.796875 3.328125 25.921875 
z
M 12.359375 25.921875 
Q 12.359375 15.96875 16.703125 11.015625 
Q 21.046875 6.0625 27.640625 6.0625 
Q 34.1875 6.0625 38.53125 11.03125 
Q 42.875 16.015625 42.875 26.21875 
Q 42.875 35.84375 38.5 40.796875 
Q 34.125 45.75 27.640625 45.75 
Q 21.046875 45.75 16.703125 40.8125 
Q 12.359375 35.890625 12.359375 25.921875 
z
" id="ArialMT-111"/>
     <path d="M 6.59375 0 
L 6.59375 51.859375 
L 14.5 51.859375 
L 14.5 44.484375 
Q 20.21875 53.03125 31 53.03125 
Q 35.6875 53.03125 39.625 51.34375 
Q 43.5625 49.65625 45.515625 46.921875 
Q 47.46875 44.1875 48.25 40.4375 
Q 48.734375 37.984375 48.734375 31.890625 
L 48.734375 0 
L 39.9375 0 
L 39.9375 31.546875 
Q 39.9375 36.921875 38.90625 39.578125 
Q 37.890625 42.234375 35.28125 43.8125 
Q 32.671875 45.40625 29.15625 45.40625 
Q 23.53125 45.40625 19.453125 41.84375 
Q 15.375 38.28125 15.375 28.328125 
L 15.375 0 
z
" id="ArialMT-110"/>
     <path id="ArialMT-32"/>
     <path d="M 52.828125 42.09375 
L 5.5625 42.09375 
L 5.5625 50.296875 
L 52.828125 50.296875 
z
M 52.828125 20.359375 
L 5.5625 20.359375 
L 5.5625 28.5625 
L 52.828125 28.5625 
z
" id="ArialMT-61"/>
     <path d="M 3.171875 21.484375 
L 3.171875 30.328125 
L 30.171875 30.328125 
L 30.171875 21.484375 
z
" id="ArialMT-45"/>
    </defs>
    <g style="fill:#262626;" transform="translate(586.021566 101.319924)scale(0.16 -0.16)">
     <use xlink:href="#ArialMT-112"/>
     <use x="55.615234" xlink:href="#ArialMT-101"/>
     <use x="111.230469" xlink:href="#ArialMT-97"/>
     <use x="166.845703" xlink:href="#ArialMT-114"/>
     <use x="200.146484" xlink:href="#ArialMT-115"/>
     <use x="250.146484" xlink:href="#ArialMT-111"/>
     <use x="305.761719" xlink:href="#ArialMT-110"/>
     <use x="361.376953" xlink:href="#ArialMT-114"/>
     <use x="394.677734" xlink:href="#ArialMT-32"/>
     <use x="422.460938" xlink:href="#ArialMT-61"/>
     <use x="480.859375" xlink:href="#ArialMT-32"/>
     <use x="508.642578" xlink:href="#ArialMT-45"/>
     <use x="541.943359" xlink:href="#ArialMT-48"/>
     <use x="597.558594" xlink:href="#ArialMT-46"/>
     <use x="625.341797" xlink:href="#ArialMT-53"/>
     <use x="680.957031" xlink:href="#ArialMT-56"/>
    </g>
   </g>
   <g id="text_18">
    <!-- Age vs. Average Basket Size -->
    <defs>
     <path d="M 50.984375 15.828125 
L 22.609375 15.828125 
L 14.015625 0 
L -1.125 0 
L 39.359375 71.578125 
L 55.71875 71.578125 
L 67.328125 0 
L 53.375 0 
z
M 49.171875 27.734375 
L 45.015625 56.546875 
L 27.734375 27.734375 
z
" id="Arial-BoldItalicMT-65"/>
     <path d="M 3.265625 -2.734375 
L 18.0625 -4.890625 
Q 18.0625 -7.125 18.796875 -8.265625 
Q 19.53125 -9.421875 21.15625 -10.21875 
Q 22.796875 -11.03125 25.640625 -11.03125 
Q 30.078125 -11.03125 32.765625 -9.28125 
Q 34.765625 -7.90625 36.03125 -4.890625 
Q 36.8125 -2.984375 38.03125 3.421875 
L 38.53125 5.859375 
Q 31.25 -0.203125 23.484375 -0.203125 
Q 15.875 -0.203125 10.984375 5.171875 
Q 6.109375 10.546875 6.109375 20.90625 
Q 6.109375 30.03125 9.421875 37.640625 
Q 12.75 45.265625 18.75 49.171875 
Q 24.75 53.078125 31 53.078125 
Q 36.1875 53.078125 40.484375 50.34375 
Q 44.78125 47.609375 47.171875 42.671875 
L 49.125 51.859375 
L 62.25 51.859375 
L 53.265625 8.640625 
Q 51.078125 -1.765625 49.5625 -6.203125 
Q 48.046875 -10.640625 46.09375 -13.28125 
Q 44.140625 -15.921875 41.15625 -17.703125 
Q 38.1875 -19.484375 34.125 -20.265625 
Q 30.078125 -21.046875 25.34375 -21.046875 
Q 14.359375 -21.046875 8.734375 -17.28125 
Q 3.125 -13.53125 3.125 -4.78125 
Q 3.125 -3.859375 3.265625 -2.734375 
z
M 19.78125 22.3125 
Q 19.78125 16.40625 22.4375 13.296875 
Q 25.09375 10.203125 29.109375 10.203125 
Q 32.765625 10.203125 36.203125 12.984375 
Q 39.65625 15.765625 41.484375 20.890625 
Q 43.3125 26.03125 43.3125 30.8125 
Q 43.3125 36.328125 40.328125 39.6875 
Q 37.359375 43.0625 33.453125 43.0625 
Q 29.6875 43.0625 26.53125 40.078125 
Q 23.390625 37.109375 21.34375 30.90625 
Q 19.78125 26.125 19.78125 22.3125 
z
" id="Arial-BoldItalicMT-103"/>
     <path d="M 54.5 21.578125 
L 19.34375 21.578125 
Q 19.28125 20.75 19.28125 20.3125 
Q 19.28125 15.140625 22.234375 11.96875 
Q 25.203125 8.796875 29.4375 8.796875 
Q 36.421875 8.796875 40.328125 16.015625 
L 52.875 13.921875 
Q 49.21875 6.34375 43.09375 2.5625 
Q 36.96875 -1.21875 29.34375 -1.21875 
Q 18.890625 -1.21875 12.34375 5.390625 
Q 5.8125 12.015625 5.8125 22.90625 
Q 5.8125 33.546875 11.71875 41.84375 
Q 19.78125 53.078125 34.71875 53.078125 
Q 44.234375 53.078125 49.84375 47.1875 
Q 55.46875 41.3125 55.46875 30.71875 
Q 55.46875 25.640625 54.5 21.578125 
z
M 42.671875 30.125 
Q 42.71875 31.0625 42.71875 31.546875 
Q 42.71875 37.3125 40.125 40.1875 
Q 37.546875 43.0625 33.203125 43.0625 
Q 28.859375 43.0625 25.40625 39.796875 
Q 21.96875 36.53125 20.75 30.125 
z
" id="Arial-BoldItalicMT-101"/>
     <path id="Arial-BoldItalicMT-32"/>
     <path d="M 29.9375 0 
L 17.875 0 
L 7.46875 51.859375 
L 21.234375 51.859375 
L 24.90625 29.25 
Q 26.421875 20.0625 26.703125 17.046875 
Q 27.09375 17.875 30.09375 23.359375 
Q 33.109375 28.859375 33.796875 29.984375 
L 46.6875 51.859375 
L 61.8125 51.859375 
z
" id="Arial-BoldItalicMT-118"/>
     <path d="M 2.203125 14.5 
L 15.765625 16.65625 
Q 17.578125 12.359375 20.265625 10.578125 
Q 22.953125 8.796875 27.59375 8.796875 
Q 32.375 8.796875 35.25 10.9375 
Q 37.25 12.40625 37.25 14.5 
Q 37.25 15.921875 36.234375 17.046875 
Q 35.15625 18.109375 30.421875 19.671875 
Q 17.71875 23.875 14.703125 26.3125 
Q 9.96875 30.125 9.96875 36.28125 
Q 9.96875 42.4375 14.546875 46.875 
Q 20.953125 53.078125 33.546875 53.078125 
Q 43.5625 53.078125 48.6875 49.40625 
Q 53.8125 45.75 55.171875 39.5 
L 42.234375 37.25 
Q 41.21875 40.09375 38.921875 41.5 
Q 35.796875 43.40625 31.390625 43.40625 
Q 27 43.40625 25.0625 41.9375 
Q 23.140625 40.484375 23.140625 38.578125 
Q 23.140625 36.625 25.09375 35.359375 
Q 26.3125 34.578125 32.953125 32.625 
Q 43.21875 29.640625 46.6875 26.765625 
Q 51.5625 22.703125 51.5625 17 
Q 51.5625 9.625 45.359375 4.203125 
Q 39.15625 -1.21875 27.875 -1.21875 
Q 16.65625 -1.21875 10.515625 2.90625 
Q 4.390625 7.03125 2.203125 14.5 
z
" id="Arial-BoldItalicMT-115"/>
     <path d="M 7.234375 13.53125 
L 21.09375 13.53125 
L 18.265625 0 
L 4.390625 0 
z
" id="Arial-BoldItalicMT-46"/>
     <path d="M 14.0625 51.859375 
L 27.15625 51.859375 
L 25.046875 41.796875 
Q 32.375 53.078125 40.921875 53.078125 
Q 43.953125 53.078125 47.40625 51.5625 
L 42.046875 40.09375 
Q 40.140625 40.765625 37.984375 40.765625 
Q 34.375 40.765625 30.640625 38.03125 
Q 26.90625 35.296875 24.796875 30.734375 
Q 22.703125 26.171875 20.65625 16.265625 
L 17.234375 0 
L 3.21875 0 
z
" id="Arial-BoldItalicMT-114"/>
     <path d="M 23.78125 37.15625 
L 10.109375 38.328125 
Q 12.453125 45.265625 18.28125 49.171875 
Q 24.125 53.078125 33.734375 53.078125 
Q 43.75 53.078125 48.53125 49.046875 
Q 53.328125 45.015625 53.328125 39.203125 
Q 53.328125 36.859375 52.90625 34.21875 
Q 52.484375 31.59375 50 20.359375 
Q 47.953125 11.078125 47.953125 7.375 
Q 47.953125 4.046875 49.125 0 
L 35.5 0 
Q 34.671875 2.828125 34.46875 5.859375 
Q 31.390625 2.4375 27.390625 0.609375 
Q 23.390625 -1.21875 19.34375 -1.21875 
Q 12.890625 -1.21875 8.6875 3 
Q 4.5 7.234375 4.5 13.875 
Q 4.5 21.296875 9.109375 25.734375 
Q 13.71875 30.171875 25.59375 31.109375 
Q 35.59375 31.9375 38.96875 33.109375 
Q 39.84375 36.03125 39.84375 37.796875 
Q 39.84375 40.046875 38.03125 41.546875 
Q 36.234375 43.0625 32.671875 43.0625 
Q 28.90625 43.0625 26.734375 41.515625 
Q 24.5625 39.984375 23.78125 37.15625 
z
M 37.109375 24.171875 
Q 35.84375 23.828125 33.734375 23.53125 
Q 23.1875 22.265625 19.96875 19.828125 
Q 17.671875 18.0625 17.671875 15.09375 
Q 17.671875 12.640625 19.421875 10.953125 
Q 21.1875 9.28125 24.078125 9.28125 
Q 27.25 9.28125 30.046875 10.8125 
Q 32.859375 12.359375 34.25 14.765625 
Q 35.640625 17.1875 36.71875 22.3125 
z
" id="Arial-BoldItalicMT-97"/>
     <path d="M 4 0 
L 19 71.578125 
L 43.453125 71.578125 
Q 51.421875 71.578125 54.59375 71.09375 
Q 59.859375 70.359375 63.515625 68.15625 
Q 67.1875 65.96875 69.09375 62.296875 
Q 71 58.640625 71 54.203125 
Q 71 48.25 67.671875 43.875 
Q 64.359375 39.5 57.421875 37.25 
Q 62.9375 35.75 66.03125 31.859375 
Q 69.140625 27.984375 69.140625 23.09375 
Q 69.140625 16.65625 65.46875 10.859375 
Q 61.8125 5.078125 55.359375 2.53125 
Q 48.921875 0 37.75 0 
z
M 27.640625 42.671875 
L 38.875 42.671875 
Q 46.4375 42.671875 49.75 43.75 
Q 53.078125 44.828125 54.734375 47.265625 
Q 56.390625 49.703125 56.390625 52.484375 
Q 56.390625 55.21875 54.828125 56.96875 
Q 53.265625 58.734375 50.390625 59.328125 
Q 48.78125 59.625 42.625 59.625 
L 31.203125 59.625 
z
M 21.140625 11.53125 
L 35.359375 11.53125 
Q 44.28125 11.53125 47.328125 12.671875 
Q 50.390625 13.8125 52.21875 16.453125 
Q 54.046875 19.09375 54.046875 22.015625 
Q 54.046875 25.59375 51.40625 27.90625 
Q 48.78125 30.21875 42.625 30.21875 
L 25.046875 30.21875 
z
" id="Arial-BoldItalicMT-66"/>
     <path d="M 3.765625 0 
L 18.75 71.578125 
L 32.765625 71.578125 
L 24.953125 34.328125 
L 43.21875 51.859375 
L 61.421875 51.859375 
L 40.578125 33.015625 
L 51.65625 0 
L 37.640625 0 
L 30.515625 23.96875 
L 21.046875 15.578125 
L 17.78125 0 
z
" id="Arial-BoldItalicMT-107"/>
     <path d="M 7.515625 41.453125 
L 9.671875 51.859375 
L 16.5 51.859375 
L 18.21875 60.15625 
L 34.28125 69.828125 
L 30.515625 51.859375 
L 39.0625 51.859375 
L 36.921875 41.453125 
L 28.328125 41.453125 
L 23.78125 19.734375 
Q 22.5625 13.8125 22.5625 12.984375 
Q 22.5625 11.375 23.578125 10.46875 
Q 24.609375 9.578125 27.296875 9.578125 
Q 28.21875 9.578125 31.9375 9.90625 
L 29.734375 -0.484375 
Q 26.125 -1.21875 22.3125 -1.21875 
Q 14.890625 -1.21875 11.515625 1.640625 
Q 8.15625 4.5 8.15625 9.578125 
Q 8.15625 11.96875 9.96875 20.609375 
L 14.3125 41.453125 
z
" id="Arial-BoldItalicMT-116"/>
     <path d="M 6.34375 23.1875 
L 20.359375 23.921875 
Q 20.65625 17.234375 22.65625 14.890625 
Q 25.875 11.078125 34.578125 11.078125 
Q 41.796875 11.078125 45.015625 13.671875 
Q 48.25 16.265625 48.25 19.921875 
Q 48.25 23.09375 45.609375 25.296875 
Q 43.75 26.90625 35.421875 30.515625 
Q 27.09375 34.125 23.265625 36.546875 
Q 19.4375 38.96875 17.234375 42.828125 
Q 15.046875 46.6875 15.046875 51.859375 
Q 15.046875 60.890625 21.578125 66.84375 
Q 28.125 72.796875 40.53125 72.796875 
Q 53.125 72.796875 60.03125 66.890625 
Q 66.9375 60.984375 67.625 51.171875 
L 53.515625 50.53125 
Q 52.984375 55.671875 49.796875 58.40625 
Q 46.625 61.140625 40.4375 61.140625 
Q 34.328125 61.140625 31.71875 58.984375 
Q 29.109375 56.84375 29.109375 53.5625 
Q 29.109375 50.484375 31.5 48.484375 
Q 33.890625 46.4375 42.09375 42.875 
Q 54.4375 37.546875 57.8125 34.234375 
Q 62.84375 29.34375 62.84375 21.6875 
Q 62.84375 12.203125 55.34375 5.484375 
Q 47.859375 -1.21875 34.46875 -1.21875 
Q 25.25 -1.21875 18.484375 1.875 
Q 11.71875 4.984375 8.9375 10.5 
Q 6.15625 16.015625 6.34375 23.1875 
z
" id="Arial-BoldItalicMT-83"/>
     <path d="M 18.953125 71.578125 
L 32.953125 71.578125 
L 30.328125 58.890625 
L 16.3125 58.890625 
z
M 14.84375 51.859375 
L 28.859375 51.859375 
L 18.015625 0 
L 4 0 
z
" id="Arial-BoldItalicMT-105"/>
     <path d="M 1.65625 0 
L 3.65625 9.46875 
L 32.078125 40.921875 
L 8.890625 40.921875 
L 11.1875 51.859375 
L 51.859375 51.859375 
L 50.140625 43.5 
L 21.484375 11.328125 
L 46.4375 11.328125 
L 44.046875 0 
z
" id="Arial-BoldItalicMT-122"/>
    </defs>
    <g style="fill:#262626;" transform="translate(268.3275 65.4528)scale(0.24 -0.24)">
     <use xlink:href="#Arial-BoldItalicMT-65"/>
     <use x="72.216797" xlink:href="#Arial-BoldItalicMT-103"/>
     <use x="133.300781" xlink:href="#Arial-BoldItalicMT-101"/>
     <use x="188.916016" xlink:href="#Arial-BoldItalicMT-32"/>
     <use x="216.699219" xlink:href="#Arial-BoldItalicMT-118"/>
     <use x="272.314453" xlink:href="#Arial-BoldItalicMT-115"/>
     <use x="327.929688" xlink:href="#Arial-BoldItalicMT-46"/>
     <use x="355.712891" xlink:href="#Arial-BoldItalicMT-32"/>
     <use x="383.449219" xlink:href="#Arial-BoldItalicMT-65"/>
     <use x="455.666016" xlink:href="#Arial-BoldItalicMT-118"/>
     <use x="511.28125" xlink:href="#Arial-BoldItalicMT-101"/>
     <use x="566.896484" xlink:href="#Arial-BoldItalicMT-114"/>
     <use x="605.8125" xlink:href="#Arial-BoldItalicMT-97"/>
     <use x="661.427734" xlink:href="#Arial-BoldItalicMT-103"/>
     <use x="722.511719" xlink:href="#Arial-BoldItalicMT-101"/>
     <use x="778.126953" xlink:href="#Arial-BoldItalicMT-32"/>
     <use x="805.910156" xlink:href="#Arial-BoldItalicMT-66"/>
     <use x="878.126953" xlink:href="#Arial-BoldItalicMT-97"/>
     <use x="933.742188" xlink:href="#Arial-BoldItalicMT-115"/>
     <use x="989.357422" xlink:href="#Arial-BoldItalicMT-107"/>
     <use x="1044.972656" xlink:href="#Arial-BoldItalicMT-101"/>
     <use x="1100.587891" xlink:href="#Arial-BoldItalicMT-116"/>
     <use x="1133.888672" xlink:href="#Arial-BoldItalicMT-32"/>
     <use x="1161.671875" xlink:href="#Arial-BoldItalicMT-83"/>
     <use x="1228.371094" xlink:href="#Arial-BoldItalicMT-105"/>
     <use x="1256.154297" xlink:href="#Arial-BoldItalicMT-122"/>
     <use x="1306.154297" xlink:href="#Arial-BoldItalicMT-101"/>
    </g>
   </g>
  </g>
 </g>
 <defs>
  <clipPath id="p21a6d3438e">
   <rect height="449.5572" width="652.86" x="105.3" y="71.4528"/>
  </clipPath>
 </defs>
</svg>
