<?xml version="1.0" encoding="utf-8" standalone="no"?>
<!DOCTYPE svg PUBLIC "-//W3C//DTD SVG 1.1//EN"
  "http://www.w3.org/Graphics/SVG/1.1/DTD/svg11.dtd">
<!-- Created with matplotlib (https://matplotlib.org/) -->
<svg height="595.44pt" version="1.1" viewBox="0 0 842.4 595.44" width="842.4pt" xmlns="http://www.w3.org/2000/svg" xmlns:xlink="http://www.w3.org/1999/xlink">
 <defs>
  <style type="text/css">
*{stroke-linecap:butt;stroke-linejoin:round;}
  </style>
 </defs>
 <g id="figure_1">
  <g id="patch_1">
   <path d="M 0 595.44 
L 842.4 595.44 
L 842.4 0 
L 0 0 
z
" style="fill:#ffffff;"/>
  </g>
  <g id="axes_1">
   <g id="patch_2">
    <path d="M 105.3 521.01 
L 758.16 521.01 
L 758.16 71.4528 
L 105.3 71.4528 
z
" style="fill:#eaeaf2;"/>
   </g>
   <g id="matplotlib.axis_1">
    <g id="xtick_1">
     <g id="text_1">
      <!-- 0 -->
      <defs>
       <path d="M 4.15625 35.296875 
Q 4.15625 48 6.765625 55.734375 
Q 9.375 63.484375 14.515625 67.671875 
Q 19.671875 71.875 27.484375 71.875 
Q 33.25 71.875 37.59375 69.546875 
Q 41.9375 67.234375 44.765625 62.859375 
Q 47.609375 58.5 49.21875 52.21875 
Q 50.828125 45.953125 50.828125 35.296875 
Q 50.828125 22.703125 48.234375 14.96875 
Q 45.65625 7.234375 40.5 3 
Q 35.359375 -1.21875 27.484375 -1.21875 
Q 17.140625 -1.21875 11.234375 6.203125 
Q 4.15625 15.140625 4.15625 35.296875 
z
M 13.1875 35.296875 
Q 13.1875 17.671875 17.3125 11.828125 
Q 21.4375 6 27.484375 6 
Q 33.546875 6 37.671875 11.859375 
Q 41.796875 17.71875 41.796875 35.296875 
Q 41.796875 52.984375 37.671875 58.78125 
Q 33.546875 64.59375 27.390625 64.59375 
Q 21.34375 64.59375 17.71875 59.46875 
Q 13.1875 52.9375 13.1875 35.296875 
z
" id="ArialMT-48"/>
      </defs>
      <g style="fill:#262626;" transform="translate(211.051484 538.383594)scale(0.11 -0.11)">
       <use xlink:href="#ArialMT-48"/>
      </g>
     </g>
    </g>
    <g id="xtick_2">
     <g id="text_2">
      <!-- 1 -->
      <defs>
       <path d="M 37.25 0 
L 28.46875 0 
L 28.46875 56 
Q 25.296875 52.984375 20.140625 49.953125 
Q 14.984375 46.921875 10.890625 45.40625 
L 10.890625 53.90625 
Q 18.265625 57.375 23.78125 62.296875 
Q 29.296875 67.234375 31.59375 71.875 
L 37.25 71.875 
z
" id="ArialMT-49"/>
      </defs>
      <g style="fill:#262626;" transform="translate(428.671484 538.383594)scale(0.11 -0.11)">
       <use xlink:href="#ArialMT-49"/>
      </g>
     </g>
    </g>
    <g id="xtick_3">
     <g id="text_3">
      <!-- 2 -->
      <defs>
       <path d="M 50.34375 8.453125 
L 50.34375 0 
L 3.03125 0 
Q 2.9375 3.171875 4.046875 6.109375 
Q 5.859375 10.9375 9.828125 15.625 
Q 13.8125 20.3125 21.34375 26.46875 
Q 33.015625 36.03125 37.109375 41.625 
Q 41.21875 47.21875 41.21875 52.203125 
Q 41.21875 57.421875 37.46875 61 
Q 33.734375 64.59375 27.734375 64.59375 
Q 21.390625 64.59375 17.578125 60.78125 
Q 13.765625 56.984375 13.71875 50.25 
L 4.6875 51.171875 
Q 5.609375 61.28125 11.65625 66.578125 
Q 17.71875 71.875 27.9375 71.875 
Q 38.234375 71.875 44.234375 66.15625 
Q 50.25 60.453125 50.25 52 
Q 50.25 47.703125 48.484375 43.546875 
Q 46.734375 39.40625 42.65625 34.8125 
Q 38.578125 30.21875 29.109375 22.21875 
Q 21.1875 15.578125 18.9375 13.203125 
Q 16.703125 10.84375 15.234375 8.453125 
z
" id="ArialMT-50"/>
      </defs>
      <g style="fill:#262626;" transform="translate(646.291484 538.383594)scale(0.11 -0.11)">
       <use xlink:href="#ArialMT-50"/>
      </g>
     </g>
    </g>
    <g id="text_4">
     <!-- Category -->
     <defs>
      <path d="M 53.078125 26.3125 
L 67.09375 21.875 
Q 63.875 10.15625 56.375 4.46875 
Q 48.875 -1.21875 37.359375 -1.21875 
Q 23.09375 -1.21875 13.90625 8.515625 
Q 4.734375 18.265625 4.734375 35.15625 
Q 4.734375 53.03125 13.953125 62.90625 
Q 23.1875 72.796875 38.234375 72.796875 
Q 51.375 72.796875 59.578125 65.046875 
Q 64.453125 60.453125 66.890625 51.859375 
L 52.59375 48.4375 
Q 51.3125 54 47.28125 57.21875 
Q 43.265625 60.453125 37.5 60.453125 
Q 29.546875 60.453125 24.578125 54.734375 
Q 19.625 49.03125 19.625 36.234375 
Q 19.625 22.65625 24.5 16.890625 
Q 29.390625 11.140625 37.203125 11.140625 
Q 42.96875 11.140625 47.109375 14.796875 
Q 51.265625 18.453125 53.078125 26.3125 
z
" id="Arial-BoldMT-67"/>
      <path d="M 17.4375 36.03125 
L 4.984375 38.28125 
Q 7.078125 45.796875 12.203125 49.40625 
Q 17.328125 53.03125 27.4375 53.03125 
Q 36.625 53.03125 41.109375 50.859375 
Q 45.609375 48.6875 47.4375 45.34375 
Q 49.265625 42 49.265625 33.0625 
L 49.125 17.046875 
Q 49.125 10.203125 49.78125 6.953125 
Q 50.4375 3.71875 52.25 0 
L 38.671875 0 
Q 38.140625 1.375 37.359375 4.046875 
Q 37.015625 5.28125 36.859375 5.671875 
Q 33.34375 2.25 29.34375 0.53125 
Q 25.34375 -1.171875 20.796875 -1.171875 
Q 12.796875 -1.171875 8.171875 3.171875 
Q 3.5625 7.515625 3.5625 14.15625 
Q 3.5625 18.5625 5.65625 22 
Q 7.765625 25.4375 11.546875 27.265625 
Q 15.328125 29.109375 22.46875 30.46875 
Q 32.078125 32.28125 35.796875 33.84375 
L 35.796875 35.203125 
Q 35.796875 39.15625 33.84375 40.84375 
Q 31.890625 42.53125 26.46875 42.53125 
Q 22.796875 42.53125 20.75 41.09375 
Q 18.703125 39.65625 17.4375 36.03125 
z
M 35.796875 24.90625 
Q 33.15625 24.03125 27.4375 22.796875 
Q 21.734375 21.578125 19.96875 20.40625 
Q 17.28125 18.5 17.28125 15.578125 
Q 17.28125 12.703125 19.421875 10.59375 
Q 21.578125 8.5 24.90625 8.5 
Q 28.609375 8.5 31.984375 10.9375 
Q 34.46875 12.796875 35.25 15.484375 
Q 35.796875 17.234375 35.796875 22.171875 
z
" id="Arial-BoldMT-97"/>
      <path d="M 30.953125 51.859375 
L 30.953125 40.921875 
L 21.578125 40.921875 
L 21.578125 20.015625 
Q 21.578125 13.671875 21.84375 12.625 
Q 22.125 11.578125 23.078125 10.890625 
Q 24.03125 10.203125 25.390625 10.203125 
Q 27.296875 10.203125 30.90625 11.53125 
L 32.078125 0.875 
Q 27.296875 -1.171875 21.234375 -1.171875 
Q 17.53125 -1.171875 14.546875 0.0625 
Q 11.578125 1.3125 10.1875 3.296875 
Q 8.796875 5.28125 8.25 8.640625 
Q 7.8125 11.03125 7.8125 18.3125 
L 7.8125 40.921875 
L 1.515625 40.921875 
L 1.515625 51.859375 
L 7.8125 51.859375 
L 7.8125 62.15625 
L 21.578125 70.171875 
L 21.578125 51.859375 
z
" id="Arial-BoldMT-116"/>
      <path d="M 37.203125 16.5 
L 50.875 14.203125 
Q 48.25 6.6875 42.546875 2.75 
Q 36.859375 -1.171875 28.328125 -1.171875 
Q 14.796875 -1.171875 8.296875 7.671875 
Q 3.171875 14.75 3.171875 25.53125 
Q 3.171875 38.421875 9.90625 45.71875 
Q 16.65625 53.03125 26.953125 53.03125 
Q 38.53125 53.03125 45.21875 45.390625 
Q 51.90625 37.75 51.609375 21.96875 
L 17.234375 21.96875 
Q 17.390625 15.875 20.5625 12.46875 
Q 23.734375 9.078125 28.46875 9.078125 
Q 31.6875 9.078125 33.875 10.828125 
Q 36.078125 12.59375 37.203125 16.5 
z
M 37.984375 30.375 
Q 37.84375 36.328125 34.90625 39.421875 
Q 31.984375 42.53125 27.78125 42.53125 
Q 23.296875 42.53125 20.359375 39.265625 
Q 17.4375 35.984375 17.484375 30.375 
z
" id="Arial-BoldMT-101"/>
      <path d="M 5.90625 -3.421875 
L 21.578125 -5.328125 
Q 21.96875 -8.0625 23.390625 -9.078125 
Q 25.34375 -10.546875 29.546875 -10.546875 
Q 34.90625 -10.546875 37.59375 -8.9375 
Q 39.40625 -7.859375 40.328125 -5.46875 
Q 40.96875 -3.765625 40.96875 0.828125 
L 40.96875 8.40625 
Q 34.8125 0 25.4375 0 
Q 14.984375 0 8.890625 8.84375 
Q 4.109375 15.828125 4.109375 26.21875 
Q 4.109375 39.265625 10.375 46.140625 
Q 16.65625 53.03125 25.984375 53.03125 
Q 35.59375 53.03125 41.84375 44.578125 
L 41.84375 51.859375 
L 54.6875 51.859375 
L 54.6875 5.328125 
Q 54.6875 -3.859375 53.171875 -8.390625 
Q 51.65625 -12.9375 48.921875 -15.515625 
Q 46.1875 -18.109375 41.625 -19.578125 
Q 37.0625 -21.046875 30.078125 -21.046875 
Q 16.890625 -21.046875 11.375 -16.53125 
Q 5.859375 -12.015625 5.859375 -5.078125 
Q 5.859375 -4.390625 5.90625 -3.421875 
z
M 18.171875 27 
Q 18.171875 18.75 21.359375 14.90625 
Q 24.5625 11.078125 29.25 11.078125 
Q 34.28125 11.078125 37.75 15.015625 
Q 41.21875 18.953125 41.21875 26.65625 
Q 41.21875 34.71875 37.890625 38.625 
Q 34.578125 42.53125 29.5 42.53125 
Q 24.5625 42.53125 21.359375 38.6875 
Q 18.171875 34.859375 18.171875 27 
z
" id="Arial-BoldMT-103"/>
      <path d="M 4 26.65625 
Q 4 33.5 7.375 39.890625 
Q 10.75 46.296875 16.921875 49.65625 
Q 23.09375 53.03125 30.71875 53.03125 
Q 42.484375 53.03125 50 45.390625 
Q 57.515625 37.75 57.515625 26.078125 
Q 57.515625 14.3125 49.921875 6.5625 
Q 42.328125 -1.171875 30.8125 -1.171875 
Q 23.6875 -1.171875 17.21875 2.046875 
Q 10.75 5.28125 7.375 11.5 
Q 4 17.71875 4 26.65625 
z
M 18.0625 25.921875 
Q 18.0625 18.21875 21.71875 14.109375 
Q 25.390625 10.015625 30.765625 10.015625 
Q 36.140625 10.015625 39.765625 14.109375 
Q 43.40625 18.21875 43.40625 26.03125 
Q 43.40625 33.640625 39.765625 37.734375 
Q 36.140625 41.84375 30.765625 41.84375 
Q 25.390625 41.84375 21.71875 37.734375 
Q 18.0625 33.640625 18.0625 25.921875 
z
" id="Arial-BoldMT-111"/>
      <path d="M 20.3125 0 
L 6.59375 0 
L 6.59375 51.859375 
L 19.34375 51.859375 
L 19.34375 44.484375 
Q 22.609375 49.703125 25.21875 51.359375 
Q 27.828125 53.03125 31.15625 53.03125 
Q 35.84375 53.03125 40.1875 50.4375 
L 35.9375 38.484375 
Q 32.46875 40.71875 29.5 40.71875 
Q 26.609375 40.71875 24.609375 39.125 
Q 22.609375 37.546875 21.453125 33.390625 
Q 20.3125 29.25 20.3125 16.015625 
z
" id="Arial-BoldMT-114"/>
      <path d="M 0.6875 51.859375 
L 15.28125 51.859375 
L 27.6875 15.046875 
L 39.796875 51.859375 
L 54 51.859375 
L 35.6875 1.953125 
L 32.421875 -7.078125 
Q 30.609375 -11.625 28.96875 -14.015625 
Q 27.34375 -16.40625 25.21875 -17.890625 
Q 23.09375 -19.390625 19.984375 -20.21875 
Q 16.890625 -21.046875 12.984375 -21.046875 
Q 9.03125 -21.046875 5.21875 -20.21875 
L 4 -9.46875 
Q 7.234375 -10.109375 9.8125 -10.109375 
Q 14.59375 -10.109375 16.890625 -7.296875 
Q 19.1875 -4.5 20.40625 -0.140625 
z
" id="Arial-BoldMT-121"/>
     </defs>
     <g style="fill:#262626;" transform="translate(392.722031 557.673281)scale(0.18 -0.18)">
      <use xlink:href="#Arial-BoldMT-67"/>
      <use x="72.216797" xlink:href="#Arial-BoldMT-97"/>
      <use x="127.832031" xlink:href="#Arial-BoldMT-116"/>
      <use x="161.132812" xlink:href="#Arial-BoldMT-101"/>
      <use x="216.748047" xlink:href="#Arial-BoldMT-103"/>
      <use x="277.832031" xlink:href="#Arial-BoldMT-111"/>
      <use x="338.916016" xlink:href="#Arial-BoldMT-114"/>
      <use x="377.832031" xlink:href="#Arial-BoldMT-121"/>
     </g>
    </g>
   </g>
   <g id="matplotlib.axis_2">
    <g id="ytick_1">
     <g id="text_5">
      <!-- 0 -->
      <g style="fill:#262626;" transform="translate(89.682969 524.946797)scale(0.11 -0.11)">
       <use xlink:href="#ArialMT-48"/>
      </g>
     </g>
    </g>
    <g id="ytick_2">
     <g id="text_6">
      <!-- 20000 -->
      <g style="fill:#262626;" transform="translate(65.214844 443.92152)scale(0.11 -0.11)">
       <use xlink:href="#ArialMT-50"/>
       <use x="55.615234" xlink:href="#ArialMT-48"/>
       <use x="111.230469" xlink:href="#ArialMT-48"/>
       <use x="166.845703" xlink:href="#ArialMT-48"/>
       <use x="222.460938" xlink:href="#ArialMT-48"/>
      </g>
     </g>
    </g>
    <g id="ytick_3">
     <g id="text_7">
      <!-- 40000 -->
      <defs>
       <path d="M 32.328125 0 
L 32.328125 17.140625 
L 1.265625 17.140625 
L 1.265625 25.203125 
L 33.9375 71.578125 
L 41.109375 71.578125 
L 41.109375 25.203125 
L 50.78125 25.203125 
L 50.78125 17.140625 
L 41.109375 17.140625 
L 41.109375 0 
z
M 32.328125 25.203125 
L 32.328125 57.46875 
L 9.90625 25.203125 
z
" id="ArialMT-52"/>
      </defs>
      <g style="fill:#262626;" transform="translate(65.214844 362.896244)scale(0.11 -0.11)">
       <use xlink:href="#ArialMT-52"/>
       <use x="55.615234" xlink:href="#ArialMT-48"/>
       <use x="111.230469" xlink:href="#ArialMT-48"/>
       <use x="166.845703" xlink:href="#ArialMT-48"/>
       <use x="222.460938" xlink:href="#ArialMT-48"/>
      </g>
     </g>
    </g>
    <g id="ytick_4">
     <g id="text_8">
      <!-- 60000 -->
      <defs>
       <path d="M 49.75 54.046875 
L 41.015625 53.375 
Q 39.84375 58.546875 37.703125 60.890625 
Q 34.125 64.65625 28.90625 64.65625 
Q 24.703125 64.65625 21.53125 62.3125 
Q 17.390625 59.28125 14.984375 53.46875 
Q 12.59375 47.65625 12.5 36.921875 
Q 15.671875 41.75 20.265625 44.09375 
Q 24.859375 46.4375 29.890625 46.4375 
Q 38.671875 46.4375 44.84375 39.96875 
Q 51.03125 33.5 51.03125 23.25 
Q 51.03125 16.5 48.125 10.71875 
Q 45.21875 4.9375 40.140625 1.859375 
Q 35.0625 -1.21875 28.609375 -1.21875 
Q 17.625 -1.21875 10.6875 6.859375 
Q 3.765625 14.9375 3.765625 33.5 
Q 3.765625 54.25 11.421875 63.671875 
Q 18.109375 71.875 29.4375 71.875 
Q 37.890625 71.875 43.28125 67.140625 
Q 48.6875 62.40625 49.75 54.046875 
z
M 13.875 23.1875 
Q 13.875 18.65625 15.796875 14.5 
Q 17.71875 10.359375 21.1875 8.171875 
Q 24.65625 6 28.46875 6 
Q 34.03125 6 38.03125 10.484375 
Q 42.046875 14.984375 42.046875 22.703125 
Q 42.046875 30.125 38.078125 34.390625 
Q 34.125 38.671875 28.125 38.671875 
Q 22.171875 38.671875 18.015625 34.390625 
Q 13.875 30.125 13.875 23.1875 
z
" id="ArialMT-54"/>
      </defs>
      <g style="fill:#262626;" transform="translate(65.214844 281.870968)scale(0.11 -0.11)">
       <use xlink:href="#ArialMT-54"/>
       <use x="55.615234" xlink:href="#ArialMT-48"/>
       <use x="111.230469" xlink:href="#ArialMT-48"/>
       <use x="166.845703" xlink:href="#ArialMT-48"/>
       <use x="222.460938" xlink:href="#ArialMT-48"/>
      </g>
     </g>
    </g>
    <g id="ytick_5">
     <g id="text_9">
      <!-- 80000 -->
      <defs>
       <path d="M 17.671875 38.8125 
Q 12.203125 40.828125 9.5625 44.53125 
Q 6.9375 48.25 6.9375 53.421875 
Q 6.9375 61.234375 12.546875 66.546875 
Q 18.171875 71.875 27.484375 71.875 
Q 36.859375 71.875 42.578125 66.421875 
Q 48.296875 60.984375 48.296875 53.171875 
Q 48.296875 48.1875 45.671875 44.5 
Q 43.0625 40.828125 37.75 38.8125 
Q 44.34375 36.671875 47.78125 31.875 
Q 51.21875 27.09375 51.21875 20.453125 
Q 51.21875 11.28125 44.71875 5.03125 
Q 38.234375 -1.21875 27.640625 -1.21875 
Q 17.046875 -1.21875 10.546875 5.046875 
Q 4.046875 11.328125 4.046875 20.703125 
Q 4.046875 27.6875 7.59375 32.390625 
Q 11.140625 37.109375 17.671875 38.8125 
z
M 15.921875 53.71875 
Q 15.921875 48.640625 19.1875 45.40625 
Q 22.46875 42.1875 27.6875 42.1875 
Q 32.765625 42.1875 36.015625 45.375 
Q 39.265625 48.578125 39.265625 53.21875 
Q 39.265625 58.0625 35.90625 61.359375 
Q 32.5625 64.65625 27.59375 64.65625 
Q 22.5625 64.65625 19.234375 61.421875 
Q 15.921875 58.203125 15.921875 53.71875 
z
M 13.09375 20.65625 
Q 13.09375 16.890625 14.875 13.375 
Q 16.65625 9.859375 20.171875 7.921875 
Q 23.6875 6 27.734375 6 
Q 34.03125 6 38.125 10.046875 
Q 42.234375 14.109375 42.234375 20.359375 
Q 42.234375 26.703125 38.015625 30.859375 
Q 33.796875 35.015625 27.4375 35.015625 
Q 21.234375 35.015625 17.15625 30.90625 
Q 13.09375 26.8125 13.09375 20.65625 
z
" id="ArialMT-56"/>
      </defs>
      <g style="fill:#262626;" transform="translate(65.214844 200.845691)scale(0.11 -0.11)">
       <use xlink:href="#ArialMT-56"/>
       <use x="55.615234" xlink:href="#ArialMT-48"/>
       <use x="111.230469" xlink:href="#ArialMT-48"/>
       <use x="166.845703" xlink:href="#ArialMT-48"/>
       <use x="222.460938" xlink:href="#ArialMT-48"/>
      </g>
     </g>
    </g>
    <g id="ytick_6">
     <g id="text_10">
      <!-- 100000 -->
      <g style="fill:#262626;" transform="translate(59.097812 119.820415)scale(0.11 -0.11)">
       <use xlink:href="#ArialMT-49"/>
       <use x="55.615234" xlink:href="#ArialMT-48"/>
       <use x="111.230469" xlink:href="#ArialMT-48"/>
       <use x="166.845703" xlink:href="#ArialMT-48"/>
       <use x="222.460938" xlink:href="#ArialMT-48"/>
       <use x="278.076172" xlink:href="#ArialMT-48"/>
      </g>
     </g>
    </g>
    <g id="text_11">
     <!-- Sales -->
     <defs>
      <path d="M 3.609375 23.296875 
L 17.671875 24.65625 
Q 18.953125 17.578125 22.828125 14.25 
Q 26.703125 10.9375 33.296875 10.9375 
Q 40.28125 10.9375 43.8125 13.890625 
Q 47.359375 16.84375 47.359375 20.796875 
Q 47.359375 23.34375 45.875 25.125 
Q 44.390625 26.90625 40.671875 28.21875 
Q 38.140625 29.109375 29.109375 31.34375 
Q 17.484375 34.234375 12.796875 38.421875 
Q 6.203125 44.34375 6.203125 52.828125 
Q 6.203125 58.296875 9.296875 63.0625 
Q 12.40625 67.828125 18.234375 70.3125 
Q 24.078125 72.796875 32.328125 72.796875 
Q 45.796875 72.796875 52.609375 66.890625 
Q 59.421875 60.984375 59.765625 51.125 
L 45.3125 50.484375 
Q 44.390625 56 41.328125 58.421875 
Q 38.28125 60.84375 32.171875 60.84375 
Q 25.875 60.84375 22.3125 58.25 
Q 20.015625 56.59375 20.015625 53.8125 
Q 20.015625 51.265625 22.171875 49.46875 
Q 24.90625 47.171875 35.453125 44.671875 
Q 46 42.1875 51.046875 39.515625 
Q 56.109375 36.859375 58.953125 32.25 
Q 61.8125 27.640625 61.8125 20.84375 
Q 61.8125 14.703125 58.390625 9.328125 
Q 54.984375 3.953125 48.734375 1.34375 
Q 42.484375 -1.265625 33.15625 -1.265625 
Q 19.578125 -1.265625 12.296875 5 
Q 5.03125 11.28125 3.609375 23.296875 
z
" id="Arial-BoldMT-83"/>
      <path d="M 7.171875 0 
L 7.171875 71.578125 
L 20.90625 71.578125 
L 20.90625 0 
z
" id="Arial-BoldMT-108"/>
      <path d="M 2.34375 14.796875 
L 16.109375 16.890625 
Q 17 12.890625 19.671875 10.8125 
Q 22.359375 8.734375 27.203125 8.734375 
Q 32.515625 8.734375 35.203125 10.6875 
Q 37.015625 12.0625 37.015625 14.359375 
Q 37.015625 15.921875 36.03125 16.9375 
Q 35.015625 17.921875 31.453125 18.75 
Q 14.84375 22.40625 10.40625 25.4375 
Q 4.25 29.640625 4.25 37.109375 
Q 4.25 43.84375 9.5625 48.4375 
Q 14.890625 53.03125 26.078125 53.03125 
Q 36.71875 53.03125 41.890625 49.5625 
Q 47.078125 46.09375 49.03125 39.3125 
L 36.078125 36.921875 
Q 35.25 39.9375 32.921875 41.546875 
Q 30.609375 43.171875 26.3125 43.171875 
Q 20.90625 43.171875 18.5625 41.65625 
Q 17 40.578125 17 38.875 
Q 17 37.40625 18.359375 36.375 
Q 20.21875 35.015625 31.171875 32.515625 
Q 42.140625 30.03125 46.484375 26.421875 
Q 50.78125 22.75 50.78125 16.21875 
Q 50.78125 9.078125 44.828125 3.953125 
Q 38.875 -1.171875 27.203125 -1.171875 
Q 16.609375 -1.171875 10.421875 3.125 
Q 4.25 7.421875 2.34375 14.796875 
z
" id="Arial-BoldMT-115"/>
     </defs>
     <g style="fill:#262626;" transform="translate(51.545625 319.749525)rotate(-90)scale(0.18 -0.18)">
      <use xlink:href="#Arial-BoldMT-83"/>
      <use x="66.699219" xlink:href="#Arial-BoldMT-97"/>
      <use x="122.314453" xlink:href="#Arial-BoldMT-108"/>
      <use x="150.097656" xlink:href="#Arial-BoldMT-101"/>
      <use x="205.712891" xlink:href="#Arial-BoldMT-115"/>
     </g>
    </g>
   </g>
   <g id="patch_3">
    <path clip-path="url(#p0e90b5eaca)" d="M 159.705 521.01 
L 214.11 521.01 
L 214.11 100.302457 
L 159.705 100.302457 
z
" style="fill:#4c72b0;stroke:#ffffff;stroke-linejoin:miter;"/>
   </g>
   <g id="patch_4">
    <path clip-path="url(#p0e90b5eaca)" d="M 377.325 521.01 
L 431.73 521.01 
L 431.73 296.290447 
L 377.325 296.290447 
z
" style="fill:#4c72b0;stroke:#ffffff;stroke-linejoin:miter;"/>
   </g>
   <g id="patch_5">
    <path clip-path="url(#p0e90b5eaca)" d="M 594.945 521.01 
L 649.35 521.01 
L 649.35 487.546561 
L 594.945 487.546561 
z
" style="fill:#4c72b0;stroke:#ffffff;stroke-linejoin:miter;"/>
   </g>
   <g id="patch_6">
    <path clip-path="url(#p0e90b5eaca)" d="M 214.11 521.01 
L 268.515 521.01 
L 268.515 92.860286 
L 214.11 92.860286 
z
" style="fill:#dd8452;stroke:#ffffff;stroke-linejoin:miter;"/>
   </g>
   <g id="patch_7">
    <path clip-path="url(#p0e90b5eaca)" d="M 431.73 521.01 
L 486.135 521.01 
L 486.135 301.164118 
L 431.73 301.164118 
z
" style="fill:#dd8452;stroke:#ffffff;stroke-linejoin:miter;"/>
   </g>
   <g id="patch_8">
    <path clip-path="url(#p0e90b5eaca)" d="M 649.35 521.01 
L 703.755 521.01 
L 703.755 483.365657 
L 649.35 483.365657 
z
" style="fill:#dd8452;stroke:#ffffff;stroke-linejoin:miter;"/>
   </g>
   <g id="patch_9">
    <path d="M 105.3 521.01 
L 105.3 71.4528 
" style="fill:none;stroke:#ffffff;stroke-linecap:square;stroke-linejoin:miter;stroke-width:1.25;"/>
   </g>
   <g id="patch_10">
    <path d="M 758.16 521.01 
L 758.16 71.4528 
" style="fill:none;stroke:#ffffff;stroke-linecap:square;stroke-linejoin:miter;stroke-width:1.25;"/>
   </g>
   <g id="patch_11">
    <path d="M 105.3 521.01 
L 758.16 521.01 
" style="fill:none;stroke:#ffffff;stroke-linecap:square;stroke-linejoin:miter;stroke-width:1.25;"/>
   </g>
   <g id="patch_12">
    <path d="M 105.3 71.4528 
L 758.16 71.4528 
" style="fill:none;stroke:#ffffff;stroke-linecap:square;stroke-linejoin:miter;stroke-width:1.25;"/>
   </g>
   <g id="text_12">
    <!-- Total Sales by Gender in Each Category -->
    <defs>
     <path d="M 35.25 0 
L 20.515625 0 
L 33.015625 59.625 
L 12.015625 59.625 
L 14.5 71.578125 
L 70.90625 71.578125 
L 68.40625 59.625 
L 47.703125 59.625 
z
" id="Arial-BoldItalicMT-84"/>
     <path d="M 6.0625 21.53125 
Q 6.0625 35.9375 14.1875 44.5 
Q 22.3125 53.078125 35.546875 53.078125 
Q 47.015625 53.078125 53.453125 46.75 
Q 59.90625 40.4375 59.90625 29.734375 
Q 59.90625 17.140625 51.84375 7.953125 
Q 43.796875 -1.21875 30.28125 -1.21875 
Q 22.953125 -1.21875 17.28125 1.703125 
Q 11.625 4.640625 8.84375 10 
Q 6.0625 15.375 6.0625 21.53125 
z
M 46 31.546875 
Q 46 36.53125 43.09375 39.53125 
Q 40.1875 42.53125 35.59375 42.53125 
Q 31.0625 42.53125 27.546875 39.71875 
Q 24.03125 36.921875 22.078125 31.5625 
Q 20.125 26.21875 20.125 21.734375 
Q 20.125 16.15625 23.140625 12.890625 
Q 26.171875 9.625 30.765625 9.625 
Q 36.53125 9.625 40.4375 14.546875 
Q 46 21.53125 46 31.546875 
z
" id="Arial-BoldItalicMT-111"/>
     <path d="M 7.515625 41.453125 
L 9.671875 51.859375 
L 16.5 51.859375 
L 18.21875 60.15625 
L 34.28125 69.828125 
L 30.515625 51.859375 
L 39.0625 51.859375 
L 36.921875 41.453125 
L 28.328125 41.453125 
L 23.78125 19.734375 
Q 22.5625 13.8125 22.5625 12.984375 
Q 22.5625 11.375 23.578125 10.46875 
Q 24.609375 9.578125 27.296875 9.578125 
Q 28.21875 9.578125 31.9375 9.90625 
L 29.734375 -0.484375 
Q 26.125 -1.21875 22.3125 -1.21875 
Q 14.890625 -1.21875 11.515625 1.640625 
Q 8.15625 4.5 8.15625 9.578125 
Q 8.15625 11.96875 9.96875 20.609375 
L 14.3125 41.453125 
z
" id="Arial-BoldItalicMT-116"/>
     <path d="M 23.78125 37.15625 
L 10.109375 38.328125 
Q 12.453125 45.265625 18.28125 49.171875 
Q 24.125 53.078125 33.734375 53.078125 
Q 43.75 53.078125 48.53125 49.046875 
Q 53.328125 45.015625 53.328125 39.203125 
Q 53.328125 36.859375 52.90625 34.21875 
Q 52.484375 31.59375 50 20.359375 
Q 47.953125 11.078125 47.953125 7.375 
Q 47.953125 4.046875 49.125 0 
L 35.5 0 
Q 34.671875 2.828125 34.46875 5.859375 
Q 31.390625 2.4375 27.390625 0.609375 
Q 23.390625 -1.21875 19.34375 -1.21875 
Q 12.890625 -1.21875 8.6875 3 
Q 4.5 7.234375 4.5 13.875 
Q 4.5 21.296875 9.109375 25.734375 
Q 13.71875 30.171875 25.59375 31.109375 
Q 35.59375 31.9375 38.96875 33.109375 
Q 39.84375 36.03125 39.84375 37.796875 
Q 39.84375 40.046875 38.03125 41.546875 
Q 36.234375 43.0625 32.671875 43.0625 
Q 28.90625 43.0625 26.734375 41.515625 
Q 24.5625 39.984375 23.78125 37.15625 
z
M 37.109375 24.171875 
Q 35.84375 23.828125 33.734375 23.53125 
Q 23.1875 22.265625 19.96875 19.828125 
Q 17.671875 18.0625 17.671875 15.09375 
Q 17.671875 12.640625 19.421875 10.953125 
Q 21.1875 9.28125 24.078125 9.28125 
Q 27.25 9.28125 30.046875 10.8125 
Q 32.859375 12.359375 34.25 14.765625 
Q 35.640625 17.1875 36.71875 22.3125 
z
" id="Arial-BoldItalicMT-97"/>
     <path d="M 3.90625 0 
L 18.890625 71.578125 
L 32.859375 71.578125 
L 17.921875 0 
z
" id="Arial-BoldItalicMT-108"/>
     <path id="Arial-BoldItalicMT-32"/>
     <path d="M 6.34375 23.1875 
L 20.359375 23.921875 
Q 20.65625 17.234375 22.65625 14.890625 
Q 25.875 11.078125 34.578125 11.078125 
Q 41.796875 11.078125 45.015625 13.671875 
Q 48.25 16.265625 48.25 19.921875 
Q 48.25 23.09375 45.609375 25.296875 
Q 43.75 26.90625 35.421875 30.515625 
Q 27.09375 34.125 23.265625 36.546875 
Q 19.4375 38.96875 17.234375 42.828125 
Q 15.046875 46.6875 15.046875 51.859375 
Q 15.046875 60.890625 21.578125 66.84375 
Q 28.125 72.796875 40.53125 72.796875 
Q 53.125 72.796875 60.03125 66.890625 
Q 66.9375 60.984375 67.625 51.171875 
L 53.515625 50.53125 
Q 52.984375 55.671875 49.796875 58.40625 
Q 46.625 61.140625 40.4375 61.140625 
Q 34.328125 61.140625 31.71875 58.984375 
Q 29.109375 56.84375 29.109375 53.5625 
Q 29.109375 50.484375 31.5 48.484375 
Q 33.890625 46.4375 42.09375 42.875 
Q 54.4375 37.546875 57.8125 34.234375 
Q 62.84375 29.34375 62.84375 21.6875 
Q 62.84375 12.203125 55.34375 5.484375 
Q 47.859375 -1.21875 34.46875 -1.21875 
Q 25.25 -1.21875 18.484375 1.875 
Q 11.71875 4.984375 8.9375 10.5 
Q 6.15625 16.015625 6.34375 23.1875 
z
" id="Arial-BoldItalicMT-83"/>
     <path d="M 54.5 21.578125 
L 19.34375 21.578125 
Q 19.28125 20.75 19.28125 20.3125 
Q 19.28125 15.140625 22.234375 11.96875 
Q 25.203125 8.796875 29.4375 8.796875 
Q 36.421875 8.796875 40.328125 16.015625 
L 52.875 13.921875 
Q 49.21875 6.34375 43.09375 2.5625 
Q 36.96875 -1.21875 29.34375 -1.21875 
Q 18.890625 -1.21875 12.34375 5.390625 
Q 5.8125 12.015625 5.8125 22.90625 
Q 5.8125 33.546875 11.71875 41.84375 
Q 19.78125 53.078125 34.71875 53.078125 
Q 44.234375 53.078125 49.84375 47.1875 
Q 55.46875 41.3125 55.46875 30.71875 
Q 55.46875 25.640625 54.5 21.578125 
z
M 42.671875 30.125 
Q 42.71875 31.0625 42.71875 31.546875 
Q 42.71875 37.3125 40.125 40.1875 
Q 37.546875 43.0625 33.203125 43.0625 
Q 28.859375 43.0625 25.40625 39.796875 
Q 21.96875 36.53125 20.75 30.125 
z
" id="Arial-BoldItalicMT-101"/>
     <path d="M 2.203125 14.5 
L 15.765625 16.65625 
Q 17.578125 12.359375 20.265625 10.578125 
Q 22.953125 8.796875 27.59375 8.796875 
Q 32.375 8.796875 35.25 10.9375 
Q 37.25 12.40625 37.25 14.5 
Q 37.25 15.921875 36.234375 17.046875 
Q 35.15625 18.109375 30.421875 19.671875 
Q 17.71875 23.875 14.703125 26.3125 
Q 9.96875 30.125 9.96875 36.28125 
Q 9.96875 42.4375 14.546875 46.875 
Q 20.953125 53.078125 33.546875 53.078125 
Q 43.5625 53.078125 48.6875 49.40625 
Q 53.8125 45.75 55.171875 39.5 
L 42.234375 37.25 
Q 41.21875 40.09375 38.921875 41.5 
Q 35.796875 43.40625 31.390625 43.40625 
Q 27 43.40625 25.0625 41.9375 
Q 23.140625 40.484375 23.140625 38.578125 
Q 23.140625 36.625 25.09375 35.359375 
Q 26.3125 34.578125 32.953125 32.625 
Q 43.21875 29.640625 46.6875 26.765625 
Q 51.5625 22.703125 51.5625 17 
Q 51.5625 9.625 45.359375 4.203125 
Q 39.15625 -1.21875 27.875 -1.21875 
Q 16.65625 -1.21875 10.515625 2.90625 
Q 4.390625 7.03125 2.203125 14.5 
z
" id="Arial-BoldItalicMT-115"/>
     <path d="M 3.609375 0 
L 18.5625 71.578125 
L 32.625 71.578125 
L 27.59375 47.65625 
Q 31.453125 50.59375 34.796875 51.828125 
Q 38.140625 53.078125 42.09375 53.078125 
Q 50.296875 53.078125 55.21875 47.578125 
Q 60.15625 42.09375 60.15625 31.59375 
Q 60.15625 24.515625 57.828125 17.84375 
Q 55.515625 11.1875 51.625 7 
Q 47.75 2.828125 43.46875 0.796875 
Q 39.203125 -1.21875 34.515625 -1.21875 
Q 23.390625 -1.21875 18.171875 8.546875 
L 16.359375 0 
z
M 22.515625 21.140625 
Q 22.515625 15.921875 25.46875 12.640625 
Q 28.421875 9.375 32.421875 9.375 
Q 35.9375 9.375 39.125 11.90625 
Q 42.328125 14.453125 44.453125 20.015625 
Q 46.578125 25.59375 46.578125 31.25 
Q 46.578125 36.765625 43.71875 39.90625 
Q 40.875 43.0625 36.8125 43.0625 
Q 31.546875 43.0625 27.734375 38.1875 
Q 22.515625 31.5 22.515625 21.140625 
z
" id="Arial-BoldItalicMT-98"/>
     <path d="M 8.34375 51.859375 
L 22.3125 51.859375 
L 25.828125 26.03125 
Q 27.15625 16.0625 27.296875 12.0625 
Q 30.03125 20.015625 34.8125 28.859375 
L 47.21875 51.859375 
L 62.0625 51.859375 
L 30.03125 -5.078125 
Q 26.078125 -12.15625 23.796875 -14.984375 
Q 21.53125 -17.828125 18.328125 -19.4375 
Q 15.140625 -21.046875 10.640625 -21.046875 
Q 6.203125 -21.046875 0.640625 -19.484375 
L 1.859375 -9.03125 
Q 4.390625 -9.765625 6.78125 -9.765625 
Q 13.234375 -9.765625 17.390625 0 
z
" id="Arial-BoldItalicMT-121"/>
     <path d="M 43.953125 38.234375 
L 75.984375 38.234375 
L 69.53125 7.515625 
Q 63.875 3.859375 55.640625 1.3125 
Q 47.40625 -1.21875 38.875 -1.21875 
Q 25.59375 -1.21875 18.5 4.78125 
Q 8.84375 12.984375 8.84375 28.5625 
Q 8.84375 39.015625 12.984375 48.578125 
Q 17.96875 60.109375 27.140625 66.453125 
Q 36.328125 72.796875 48.734375 72.796875 
Q 61.140625 72.796875 68.625 67.03125 
Q 76.125 61.28125 78.5625 50.25 
L 64.84375 48.6875 
Q 63.03125 54.734375 59 57.8125 
Q 54.984375 60.890625 48.875 60.890625 
Q 41.75 60.890625 35.78125 57.171875 
Q 29.828125 53.46875 26.453125 45.703125 
Q 23.09375 37.9375 23.09375 28.765625 
Q 23.09375 19.734375 27.1875 15.40625 
Q 31.296875 11.078125 39.203125 11.078125 
Q 43.953125 11.078125 48.921875 12.421875 
Q 53.90625 13.765625 57.515625 15.625 
L 59.71875 26.265625 
L 41.453125 26.265625 
z
" id="Arial-BoldItalicMT-71"/>
     <path d="M 15.046875 51.859375 
L 28.328125 51.859375 
L 26.953125 45.125 
Q 31.9375 49.421875 36.25 51.25 
Q 40.578125 53.078125 45.359375 53.078125 
Q 51.765625 53.078125 55.4375 49.40625 
Q 59.125 45.75 59.125 39.703125 
Q 59.125 36.96875 57.515625 29.34375 
L 51.421875 0 
L 37.40625 0 
L 43.5625 29.4375 
Q 44.921875 36.03125 44.921875 37.3125 
Q 44.921875 39.984375 43.328125 41.515625 
Q 41.75 43.0625 38.921875 43.0625 
Q 35.84375 43.0625 32.078125 40.46875 
Q 28.328125 37.890625 26.171875 33.640625 
Q 24.609375 30.609375 22.65625 21.296875 
L 18.21875 0 
L 4.203125 0 
z
" id="Arial-BoldItalicMT-110"/>
     <path d="M 51.90625 0 
L 38.625 0 
L 39.796875 5.609375 
Q 35.984375 1.953125 32.296875 0.359375 
Q 28.609375 -1.21875 23.96875 -1.21875 
Q 15.921875 -1.21875 10.90625 4.265625 
Q 5.90625 9.765625 5.90625 20.515625 
Q 5.90625 32.953125 12.9375 43.015625 
Q 19.96875 53.078125 31.546875 53.078125 
Q 42 53.078125 47.21875 44.78125 
L 52.828125 71.578125 
L 66.84375 71.578125 
z
M 19.53125 21.09375 
Q 19.53125 15.53125 22.328125 12.40625 
Q 25.140625 9.28125 29.25 9.28125 
Q 33.0625 9.28125 36.359375 11.890625 
Q 39.65625 14.5 41.625 19.875 
Q 43.609375 25.25 43.609375 30.171875 
Q 43.609375 35.796875 40.578125 39.25 
Q 37.546875 42.71875 33.59375 42.71875 
Q 27.4375 42.71875 23.484375 35.875 
Q 19.53125 29.046875 19.53125 21.09375 
z
" id="Arial-BoldItalicMT-100"/>
     <path d="M 14.0625 51.859375 
L 27.15625 51.859375 
L 25.046875 41.796875 
Q 32.375 53.078125 40.921875 53.078125 
Q 43.953125 53.078125 47.40625 51.5625 
L 42.046875 40.09375 
Q 40.140625 40.765625 37.984375 40.765625 
Q 34.375 40.765625 30.640625 38.03125 
Q 26.90625 35.296875 24.796875 30.734375 
Q 22.703125 26.171875 20.65625 16.265625 
L 17.234375 0 
L 3.21875 0 
z
" id="Arial-BoldItalicMT-114"/>
     <path d="M 18.953125 71.578125 
L 32.953125 71.578125 
L 30.328125 58.890625 
L 16.3125 58.890625 
z
M 14.84375 51.859375 
L 28.859375 51.859375 
L 18.015625 0 
L 4 0 
z
" id="Arial-BoldItalicMT-105"/>
     <path d="M 4.109375 0 
L 19.046875 71.578125 
L 72.125 71.578125 
L 69.625 59.625 
L 31.296875 59.625 
L 27.875 43.359375 
L 64.9375 43.359375 
L 62.453125 31.390625 
L 25.390625 31.390625 
L 20.90625 11.96875 
L 62.546875 11.96875 
L 60.015625 0 
z
" id="Arial-BoldItalicMT-69"/>
     <path d="M 39.15625 19.53125 
L 52.78125 17.328125 
Q 49.421875 8.25 42.828125 3.515625 
Q 36.234375 -1.21875 27.546875 -1.21875 
Q 17.625 -1.21875 11.8125 4.6875 
Q 6 10.59375 6 20.953125 
Q 6 29.390625 9.515625 36.90625 
Q 13.03125 44.4375 20.109375 48.75 
Q 27.203125 53.078125 35.640625 53.078125 
Q 44.828125 53.078125 50.296875 48.28125 
Q 55.765625 43.5 56.453125 35.6875 
L 43.109375 34.28125 
Q 42.625 38.625 40.453125 40.671875 
Q 38.28125 42.71875 34.765625 42.71875 
Q 30.71875 42.71875 27.203125 39.6875 
Q 23.6875 36.671875 21.796875 30.640625 
Q 19.921875 24.609375 19.921875 19.34375 
Q 19.921875 14.75 22.171875 12.25 
Q 24.421875 9.765625 27.78125 9.765625 
Q 31.15625 9.765625 34.28125 12.203125 
Q 37.40625 14.65625 39.15625 19.53125 
z
" id="Arial-BoldItalicMT-99"/>
     <path d="M 18.21875 0 
L 4.203125 0 
L 19.1875 71.578125 
L 33.203125 71.578125 
L 27.828125 46.09375 
Q 32.5625 49.8125 36.65625 51.4375 
Q 40.765625 53.078125 45.453125 53.078125 
Q 51.765625 53.078125 55.421875 49.453125 
Q 59.078125 45.84375 59.078125 39.984375 
Q 59.078125 36.859375 57.71875 30.328125 
L 51.375 0 
L 37.359375 0 
L 43.84375 30.90625 
Q 44.875 35.9375 44.875 37.359375 
Q 44.875 39.9375 43.265625 41.5 
Q 41.65625 43.0625 38.875 43.0625 
Q 35.359375 43.0625 32.125 40.625 
Q 27.9375 37.40625 25.734375 32.71875 
Q 24.515625 30.125 22.515625 20.5625 
z
" id="Arial-BoldItalicMT-104"/>
     <path d="M 55.953125 25.78125 
L 70.796875 23.53125 
Q 66.453125 11.46875 57.765625 5.09375 
Q 49.078125 -1.265625 37.40625 -1.265625 
Q 24.265625 -1.265625 16.859375 6.640625 
Q 9.46875 14.546875 9.46875 29.59375 
Q 9.46875 41.796875 14.421875 51.921875 
Q 19.390625 62.0625 28.171875 67.421875 
Q 36.96875 72.796875 47.3125 72.796875 
Q 58.9375 72.796875 66.109375 66.578125 
Q 73.296875 60.359375 74.5625 49.609375 
L 60.453125 48.25 
Q 59.28125 54.5 55.9375 57.296875 
Q 52.59375 60.109375 47.015625 60.109375 
Q 40.921875 60.109375 35.625 56.390625 
Q 30.328125 52.6875 27.140625 44.796875 
Q 23.96875 36.921875 23.96875 29.046875 
Q 23.96875 20.453125 28.09375 15.765625 
Q 32.234375 11.078125 38.375 11.078125 
Q 44.09375 11.078125 48.84375 14.78125 
Q 53.609375 18.5 55.953125 25.78125 
z
" id="Arial-BoldItalicMT-67"/>
     <path d="M 3.265625 -2.734375 
L 18.0625 -4.890625 
Q 18.0625 -7.125 18.796875 -8.265625 
Q 19.53125 -9.421875 21.15625 -10.21875 
Q 22.796875 -11.03125 25.640625 -11.03125 
Q 30.078125 -11.03125 32.765625 -9.28125 
Q 34.765625 -7.90625 36.03125 -4.890625 
Q 36.8125 -2.984375 38.03125 3.421875 
L 38.53125 5.859375 
Q 31.25 -0.203125 23.484375 -0.203125 
Q 15.875 -0.203125 10.984375 5.171875 
Q 6.109375 10.546875 6.109375 20.90625 
Q 6.109375 30.03125 9.421875 37.640625 
Q 12.75 45.265625 18.75 49.171875 
Q 24.75 53.078125 31 53.078125 
Q 36.1875 53.078125 40.484375 50.34375 
Q 44.78125 47.609375 47.171875 42.671875 
L 49.125 51.859375 
L 62.25 51.859375 
L 53.265625 8.640625 
Q 51.078125 -1.765625 49.5625 -6.203125 
Q 48.046875 -10.640625 46.09375 -13.28125 
Q 44.140625 -15.921875 41.15625 -17.703125 
Q 38.1875 -19.484375 34.125 -20.265625 
Q 30.078125 -21.046875 25.34375 -21.046875 
Q 14.359375 -21.046875 8.734375 -17.28125 
Q 3.125 -13.53125 3.125 -4.78125 
Q 3.125 -3.859375 3.265625 -2.734375 
z
M 19.78125 22.3125 
Q 19.78125 16.40625 22.4375 13.296875 
Q 25.09375 10.203125 29.109375 10.203125 
Q 32.765625 10.203125 36.203125 12.984375 
Q 39.65625 15.765625 41.484375 20.890625 
Q 43.3125 26.03125 43.3125 30.8125 
Q 43.3125 36.328125 40.328125 39.6875 
Q 37.359375 43.0625 33.453125 43.0625 
Q 29.6875 43.0625 26.53125 40.078125 
Q 23.390625 37.109375 21.34375 30.90625 
Q 19.78125 26.125 19.78125 22.3125 
z
" id="Arial-BoldItalicMT-103"/>
    </defs>
    <g style="fill:#262626;" transform="translate(204.34875 65.4528)scale(0.24 -0.24)">
     <use xlink:href="#Arial-BoldItalicMT-84"/>
     <use x="61.037109" xlink:href="#Arial-BoldItalicMT-111"/>
     <use x="122.121094" xlink:href="#Arial-BoldItalicMT-116"/>
     <use x="155.421875" xlink:href="#Arial-BoldItalicMT-97"/>
     <use x="211.037109" xlink:href="#Arial-BoldItalicMT-108"/>
     <use x="238.820312" xlink:href="#Arial-BoldItalicMT-32"/>
     <use x="266.603516" xlink:href="#Arial-BoldItalicMT-83"/>
     <use x="333.302734" xlink:href="#Arial-BoldItalicMT-97"/>
     <use x="388.917969" xlink:href="#Arial-BoldItalicMT-108"/>
     <use x="416.701172" xlink:href="#Arial-BoldItalicMT-101"/>
     <use x="472.316406" xlink:href="#Arial-BoldItalicMT-115"/>
     <use x="527.931641" xlink:href="#Arial-BoldItalicMT-32"/>
     <use x="555.714844" xlink:href="#Arial-BoldItalicMT-98"/>
     <use x="616.798828" xlink:href="#Arial-BoldItalicMT-121"/>
     <use x="672.414062" xlink:href="#Arial-BoldItalicMT-32"/>
     <use x="700.197266" xlink:href="#Arial-BoldItalicMT-71"/>
     <use x="777.980469" xlink:href="#Arial-BoldItalicMT-101"/>
     <use x="833.595703" xlink:href="#Arial-BoldItalicMT-110"/>
     <use x="894.679688" xlink:href="#Arial-BoldItalicMT-100"/>
     <use x="955.763672" xlink:href="#Arial-BoldItalicMT-101"/>
     <use x="1011.378906" xlink:href="#Arial-BoldItalicMT-114"/>
     <use x="1050.294922" xlink:href="#Arial-BoldItalicMT-32"/>
     <use x="1078.078125" xlink:href="#Arial-BoldItalicMT-105"/>
     <use x="1105.861328" xlink:href="#Arial-BoldItalicMT-110"/>
     <use x="1166.945312" xlink:href="#Arial-BoldItalicMT-32"/>
     <use x="1194.728516" xlink:href="#Arial-BoldItalicMT-69"/>
     <use x="1261.427734" xlink:href="#Arial-BoldItalicMT-97"/>
     <use x="1317.042969" xlink:href="#Arial-BoldItalicMT-99"/>
     <use x="1372.658203" xlink:href="#Arial-BoldItalicMT-104"/>
     <use x="1433.742188" xlink:href="#Arial-BoldItalicMT-32"/>
     <use x="1461.525391" xlink:href="#Arial-BoldItalicMT-67"/>
     <use x="1533.742188" xlink:href="#Arial-BoldItalicMT-97"/>
     <use x="1589.357422" xlink:href="#Arial-BoldItalicMT-116"/>
     <use x="1622.658203" xlink:href="#Arial-BoldItalicMT-101"/>
     <use x="1678.273438" xlink:href="#Arial-BoldItalicMT-103"/>
     <use x="1739.357422" xlink:href="#Arial-BoldItalicMT-111"/>
     <use x="1800.441406" xlink:href="#Arial-BoldItalicMT-114"/>
     <use x="1839.357422" xlink:href="#Arial-BoldItalicMT-121"/>
    </g>
   </g>
   <g id="legend_1">
    <g id="patch_13">
     <path d="M 627.944062 136.775925 
L 745.56 136.775925 
Q 749.16 136.775925 749.16 133.175925 
L 749.16 84.0528 
Q 749.16 80.4528 745.56 80.4528 
L 627.944062 80.4528 
Q 624.344062 80.4528 624.344062 84.0528 
L 624.344062 133.175925 
Q 624.344062 136.775925 627.944062 136.775925 
z
" style="fill:#eaeaf2;opacity:0.8;stroke:#cccccc;stroke-linejoin:miter;"/>
    </g>
    <g id="patch_14">
     <path d="M 631.544062 100.536863 
L 667.544062 100.536863 
L 667.544062 87.936863 
L 631.544062 87.936863 
z
" style="fill:#4c72b0;stroke:#ffffff;stroke-linejoin:miter;"/>
    </g>
    <g id="text_13">
     <!-- Female -->
     <defs>
      <path d="M 8.203125 0 
L 8.203125 71.578125 
L 56.5 71.578125 
L 56.5 63.140625 
L 17.671875 63.140625 
L 17.671875 40.96875 
L 51.265625 40.96875 
L 51.265625 32.515625 
L 17.671875 32.515625 
L 17.671875 0 
z
" id="ArialMT-70"/>
      <path d="M 42.09375 16.703125 
L 51.171875 15.578125 
Q 49.03125 7.625 43.21875 3.21875 
Q 37.40625 -1.171875 28.375 -1.171875 
Q 17 -1.171875 10.328125 5.828125 
Q 3.65625 12.84375 3.65625 25.484375 
Q 3.65625 38.578125 10.390625 45.796875 
Q 17.140625 53.03125 27.875 53.03125 
Q 38.28125 53.03125 44.875 45.953125 
Q 51.46875 38.875 51.46875 26.03125 
Q 51.46875 25.25 51.421875 23.6875 
L 12.75 23.6875 
Q 13.234375 15.140625 17.578125 10.59375 
Q 21.921875 6.0625 28.421875 6.0625 
Q 33.25 6.0625 36.671875 8.59375 
Q 40.09375 11.140625 42.09375 16.703125 
z
M 13.234375 30.90625 
L 42.1875 30.90625 
Q 41.609375 37.453125 38.875 40.71875 
Q 34.671875 45.796875 27.984375 45.796875 
Q 21.921875 45.796875 17.796875 41.75 
Q 13.671875 37.703125 13.234375 30.90625 
z
" id="ArialMT-101"/>
      <path d="M 6.59375 0 
L 6.59375 51.859375 
L 14.453125 51.859375 
L 14.453125 44.578125 
Q 16.890625 48.390625 20.9375 50.703125 
Q 25 53.03125 30.171875 53.03125 
Q 35.9375 53.03125 39.625 50.640625 
Q 43.3125 48.25 44.828125 43.953125 
Q 50.984375 53.03125 60.84375 53.03125 
Q 68.5625 53.03125 72.703125 48.75 
Q 76.859375 44.484375 76.859375 35.59375 
L 76.859375 0 
L 68.109375 0 
L 68.109375 32.671875 
Q 68.109375 37.9375 67.25 40.25 
Q 66.40625 42.578125 64.15625 43.984375 
Q 61.921875 45.40625 58.890625 45.40625 
Q 53.421875 45.40625 49.796875 41.765625 
Q 46.1875 38.140625 46.1875 30.125 
L 46.1875 0 
L 37.40625 0 
L 37.40625 33.6875 
Q 37.40625 39.546875 35.25 42.46875 
Q 33.109375 45.40625 28.21875 45.40625 
Q 24.515625 45.40625 21.359375 43.453125 
Q 18.21875 41.5 16.796875 37.734375 
Q 15.375 33.984375 15.375 26.90625 
L 15.375 0 
z
" id="ArialMT-109"/>
      <path d="M 40.4375 6.390625 
Q 35.546875 2.25 31.03125 0.53125 
Q 26.515625 -1.171875 21.34375 -1.171875 
Q 12.796875 -1.171875 8.203125 3 
Q 3.609375 7.171875 3.609375 13.671875 
Q 3.609375 17.484375 5.34375 20.625 
Q 7.078125 23.78125 9.890625 25.6875 
Q 12.703125 27.59375 16.21875 28.5625 
Q 18.796875 29.25 24.03125 29.890625 
Q 34.671875 31.15625 39.703125 32.90625 
Q 39.75 34.71875 39.75 35.203125 
Q 39.75 40.578125 37.25 42.78125 
Q 33.890625 45.75 27.25 45.75 
Q 21.046875 45.75 18.09375 43.578125 
Q 15.140625 41.40625 13.71875 35.890625 
L 5.125 37.0625 
Q 6.296875 42.578125 8.984375 45.96875 
Q 11.671875 49.359375 16.75 51.1875 
Q 21.828125 53.03125 28.515625 53.03125 
Q 35.15625 53.03125 39.296875 51.46875 
Q 43.453125 49.90625 45.40625 47.53125 
Q 47.359375 45.171875 48.140625 41.546875 
Q 48.578125 39.3125 48.578125 33.453125 
L 48.578125 21.734375 
Q 48.578125 9.46875 49.140625 6.21875 
Q 49.703125 2.984375 51.375 0 
L 42.1875 0 
Q 40.828125 2.734375 40.4375 6.390625 
z
M 39.703125 26.03125 
Q 34.90625 24.078125 25.34375 22.703125 
Q 19.921875 21.921875 17.671875 20.9375 
Q 15.4375 19.96875 14.203125 18.09375 
Q 12.984375 16.21875 12.984375 13.921875 
Q 12.984375 10.40625 15.640625 8.0625 
Q 18.3125 5.71875 23.4375 5.71875 
Q 28.515625 5.71875 32.46875 7.9375 
Q 36.421875 10.15625 38.28125 14.015625 
Q 39.703125 17 39.703125 22.796875 
z
" id="ArialMT-97"/>
      <path d="M 6.390625 0 
L 6.390625 71.578125 
L 15.1875 71.578125 
L 15.1875 0 
z
" id="ArialMT-108"/>
     </defs>
     <g style="fill:#262626;" transform="translate(681.944062 100.536863)scale(0.18 -0.18)">
      <use xlink:href="#ArialMT-70"/>
      <use x="61.083984" xlink:href="#ArialMT-101"/>
      <use x="116.699219" xlink:href="#ArialMT-109"/>
      <use x="200" xlink:href="#ArialMT-97"/>
      <use x="255.615234" xlink:href="#ArialMT-108"/>
      <use x="277.832031" xlink:href="#ArialMT-101"/>
     </g>
    </g>
    <g id="patch_15">
     <path d="M 631.544062 125.998425 
L 667.544062 125.998425 
L 667.544062 113.398425 
L 631.544062 113.398425 
z
" style="fill:#dd8452;stroke:#ffffff;stroke-linejoin:miter;"/>
    </g>
    <g id="text_14">
     <!-- Male -->
     <defs>
      <path d="M 7.421875 0 
L 7.421875 71.578125 
L 21.6875 71.578125 
L 38.625 20.90625 
Q 40.96875 13.8125 42.046875 10.296875 
Q 43.265625 14.203125 45.84375 21.78125 
L 62.984375 71.578125 
L 75.734375 71.578125 
L 75.734375 0 
L 66.609375 0 
L 66.609375 59.90625 
L 45.796875 0 
L 37.25 0 
L 16.546875 60.9375 
L 16.546875 0 
z
" id="ArialMT-77"/>
     </defs>
     <g style="fill:#262626;" transform="translate(681.944062 125.998425)scale(0.18 -0.18)">
      <use xlink:href="#ArialMT-77"/>
      <use x="83.300781" xlink:href="#ArialMT-97"/>
      <use x="138.916016" xlink:href="#ArialMT-108"/>
      <use x="161.132812" xlink:href="#ArialMT-101"/>
     </g>
    </g>
   </g>
  </g>
 </g>
 <defs>
  <clipPath id="p0e90b5eaca">
   <rect height="449.5572" width="652.86" x="105.3" y="71.4528"/>
  </clipPath>
 </defs>
</svg>
